<?xml version="1.0" encoding="UTF-8" standalone="no"?>
<!-- Created with Inkscape (http://www.inkscape.org/) -->

<svg
   width="134.14639mm"
   height="134.14639mm"
   viewBox="0 0 134.14639 134.14639"
   version="1.1"
   id="svg5"
   sodipodi:docname="astro.svg"
   inkscape:export-filename="/home/sixpounder/Downloads/astro.png"
   inkscape:export-xdpi="96"
   inkscape:export-ydpi="96"
   inkscape:version="1.1 (c68e22c387, 2021-05-23)"
   xmlns:inkscape="http://www.inkscape.org/namespaces/inkscape"
   xmlns:sodipodi="http://sodipodi.sourceforge.net/DTD/sodipodi-0.dtd"
   xmlns="http://www.w3.org/2000/svg"
   xmlns:svg="http://www.w3.org/2000/svg">
  <sodipodi:namedview
     id="namedview7"
     pagecolor="#ffffff"
     bordercolor="#666666"
     borderopacity="1.0"
     inkscape:pageshadow="2"
     inkscape:pageopacity="0.0"
     inkscape:pagecheckerboard="0"
     inkscape:document-units="mm"
     showgrid="false"
     inkscape:zoom="0.5499273"
     inkscape:cx="33.64081"
     inkscape:cy="588.25957"
     inkscape:window-width="1640"
     inkscape:window-height="1088"
     inkscape:window-x="1457"
     inkscape:window-y="581"
     inkscape:window-maximized="0"
     inkscape:current-layer="layer1"
     fit-margin-top="0"
     fit-margin-left="0"
     fit-margin-right="0"
     fit-margin-bottom="0" />
  <defs
     id="defs2" />
  <g
     inkscape:label="Layer 1"
     inkscape:groupmode="layer"
     id="layer1"
     transform="translate(-38.660418,-0.29834)">
    <g
       id="g33"
       transform="matrix(0.00335366,0,0,-0.00335366,38.660418,134.44474)">
      <path
         d="M 0,0 H 40000 V 40000 H 0 Z"
         style="fill:#cceeff;fill-opacity:1;fill-rule:nonzero;stroke:none"
         id="path35" />
      <path
         d="m 24220.6,22632.2 c 0,0 2639.5,202.3 3415.9,-335.2 1399.1,-968.5 1791.2,-6210.3 704.8,-8068 -797.6,-1363.7 -5685.3,-659.8 -5685.3,-659.8 l 1564.6,9063"
         style="fill:#ffffff;fill-opacity:1;fill-rule:nonzero;stroke:none"
         id="path37" />
      <path
         d="m 28616.9,15441.5 -1094,9.1 c -28.3,0.3 -56.6,0.6 -84.9,0.9 -5.8,82 -12.1,163.5 -18.8,244.1 180,-117.6 399.5,-175.8 621.2,-175.8 218.4,0 438.9,56.6 625.5,168.7 -15.1,-84.1 -31.4,-166.4 -49,-247"
         style="fill:#b9afbe;fill-opacity:1;fill-rule:nonzero;stroke:none"
         id="path39" />
      <path
         d="m 25263.5,13234.9 c -21.5,0 -42.9,0 -64.6,0.1 -1317,5.5 -2552.3,181.3 -2564.7,183.1 -83.4,12 -141.3,89.4 -129.3,172.8 12,83.5 89.8,141.4 172.8,129.3 1331.3,-191.5 4920.3,-459.7 5531.8,585.9 1066.5,1823.6 634.8,6969.2 -659.9,7865.4 -600,415.4 -2598,363.5 -3317.3,308.5 -84.2,-6.3 -157.4,56.5 -163.9,140.5 -6.4,84.1 56.5,157.4 140.6,163.9 109.9,8.3 2702.8,199.9 3514.3,-361.8 687.6,-476.1 1192.2,-1901.7 1349.8,-3813.6 119.8,-1453.8 25.1,-3388.1 -600,-4457 -356,-608.6 -1435.8,-917.1 -3209.6,-917.1"
         style="fill:#371a45;fill-opacity:1;fill-rule:nonzero;stroke:none"
         id="path41" />
      <path
         d="M 28822.4,17981.2 27467,17876.4 c -121,-9.4 -220.6,-99 -241.9,-218.5 -78.2,-437.5 -206.2,-1457.4 220,-1793.1 353.7,-278.7 927,-244.6 1262.3,40.5 375,318.9 409.5,1319 402.3,1814 -2.3,153.9 -133.8,273.8 -287.3,261.9"
         style="fill:#ffffff;fill-opacity:1;fill-rule:nonzero;stroke:none"
         id="path43" />
      <path
         d="m 28040.1,15824.5 c -183.6,0 -364.4,52.9 -500.5,160.2 -76.5,60.2 -135.4,159.1 -176.2,290.8 -5.8,53.5 -11.9,106.7 -18.1,159.5 24.8,-26.6 54.2,-41.4 89.2,-41.4 6.6,0 13.5,0.6 20.6,1.6 70.5,11 158.6,201.2 158.6,201.2 0,0 251.8,-384.6 637.5,-384.5 164.1,0 352.6,69.7 556.1,268.4 16.2,15.8 32,32.7 47.2,50.7 -59.2,-245.5 -142.5,-421.4 -246,-509.4 -153.7,-130.7 -362.8,-197.1 -568.4,-197.1"
         style="fill:#b9afbe;fill-opacity:1;fill-rule:nonzero;stroke:none"
         id="path45" />
      <path
         d="m 28834.2,17829 -1355.4,-104.8 c -51.9,-4 -94.4,-42.3 -103.5,-93.1 -148.7,-832.8 -87.3,-1448.3 164.3,-1646.4 288.5,-227.4 778,-210.5 1068.9,36.9 230.8,196.2 361.1,830.1 348.6,1695.5 -0.5,31.8 -13.7,61.1 -37.1,82.5 -23.5,21.4 -53.7,31.9 -85.8,29.4 m -793.8,-2309.2 c -250.7,0 -498.6,74.5 -689.8,225.1 -474.6,373.9 -376.5,1375.9 -275.8,1939.9 33.5,187.6 190,329 380.4,343.8 l 1355.5,104.8 c 115.2,8.8 229.8,-30.6 315,-108.3 85.2,-77.6 134.9,-188.3 136.6,-303.6 10.1,-696.1 -60.8,-1596.5 -456.1,-1932.5 -210.1,-178.7 -489.7,-269.2 -765.8,-269.2"
         style="fill:#371a45;fill-opacity:1;fill-rule:nonzero;stroke:none"
         id="path47" />
      <path
         d="m 28058.2,15554.9 c -30,17.1 -45.1,28.8 -65,43.6 -18.3,14.2 -36,28.7 -52.4,43.9 -33.5,30.1 -64,61.9 -92.2,95.3 -56,66.9 -105.7,137.8 -144.3,213.6 -80.2,150.1 -128.5,311.6 -152.3,473.1 -10.2,81 -19.1,161.6 -19.6,242.2 -4.1,81 0.1,158.4 2.9,237.8 3.7,79 10.2,158 20.7,236.9 11.8,79.8 23,155.2 52.4,238.5 7.4,20.9 30.3,31.8 51.3,24.4 19.5,-6.9 30.3,-27.3 25.7,-47.1 l -1.3,-5.2 c -15.8,-65.3 -21.5,-145.2 -24.2,-219.4 -2.4,-75.7 -0.9,-151.8 3.3,-227.9 8.5,-153.3 24.8,-303 60.5,-445.7 35.9,-142.6 93,-277.7 171.8,-394.2 37.9,-59.3 84.1,-111.6 132.6,-158.9 24.3,-23.6 50.1,-45.3 76.5,-64.4 13.1,-10 26.5,-18.6 39.8,-26.9 11.8,-7.4 29.3,-16.8 33.5,-18.1 71.9,-22.1 112.3,-98.2 90.3,-170.1 -22,-71.9 -98.2,-112.4 -170.1,-90.3 -9.5,2.9 -18.4,6.8 -26.8,11.4 l -13.1,7.5"
         style="fill:#371a45;fill-opacity:1;fill-rule:nonzero;stroke:none"
         id="path49" />
      <path
         d="m 25811,21683.2 c -57.9,0 -113.2,33 -138.9,89.1 -35.1,76.6 -1.5,167.2 75.2,202.3 1237.6,566.9 1995.9,397.5 2027.5,390.1 82.1,-19.4 132.9,-101.6 113.5,-183.7 -19.4,-81.8 -101.2,-132.6 -182.9,-113.6 -9.6,2.1 -700.5,147.6 -1830.9,-370.3 -20.7,-9.5 -42.3,-13.9 -63.5,-13.9"
         style="fill:#371a45;fill-opacity:1;fill-rule:nonzero;stroke:none"
         id="path51" />
      <path
         d="m 18822.3,21667.7 c 0,0 -1212.1,-3639.2 -4538.8,-4813.9 v -2232.4 h 4538.8 v 7046.3"
         style="fill:#ffffff;fill-opacity:1;fill-rule:nonzero;stroke:none"
         id="path53" />
      <path
         d="M 18822.4,21667.9 V 14621.6 H 14283.6 V 16854 c 3326.5,1174.5 4538.8,4813.9 4538.8,4813.9"
         style="fill:#ffffff;fill-opacity:1;fill-rule:nonzero;stroke:none"
         id="path55" />
      <path
         d="m 17456.6,15519.2 h -372.2 l -206.3,837.7 c 63,79.2 124.4,159.5 184,240.2 9.3,-317.7 195.9,-589.5 462.3,-722.7 -24.1,-126.8 -46.8,-245.4 -67.8,-355.2 m 138,1880.8 c 115,192.9 221.2,384.8 318.7,572.3 -32.1,-177.6 -63.7,-351.3 -94.5,-519.8 -77.6,-7.2 -152.9,-24.9 -224.2,-52.5"
         style="fill:#b9afbe;fill-opacity:1;fill-rule:nonzero;stroke:none"
         id="path57" />
      <path
         d="m 14436.1,14774 h 4233.6 v 6135.1 c -167.9,-352.4 -411.6,-806.4 -743,-1293.7 C 17270.9,18651.6 16137,17381 14436.1,16746.8 V 14774 m 4538.9,-305.2 h -4844.2 v 2493 l 101.9,35.9 c 3215.1,1135.4 4432.9,4682.6 4444.9,4718.3 l 297.4,890.4 v -8137.6"
         style="fill:#371a45;fill-opacity:1;fill-rule:nonzero;stroke:none"
         id="path59" />
      <path
         d="m 27328.8,14621.6 h -9891.2 c 0,0 544.5,2737.6 1039.1,5692.8 76.7,457.9 152.3,921.2 224.4,1380.2 601.4,3832.5 6333.5,1333.4 6333.5,1333.4 0,0 224,-306.5 532,-910.9 637.6,-1249.8 1636.3,-3774.5 1762.2,-7495.5"
         style="fill:#ffffff;fill-opacity:1;fill-rule:nonzero;stroke:none"
         id="path61" />
      <path
         d="m 17623.2,14774 h 9547.1 c -204.5,4991.4 -2008.5,7796.5 -2235.6,8130.6 -376,155.9 -3358.6,1340.2 -5014.8,430.6 -586,-321.7 -945.3,-881.6 -1068.2,-1664.2 -463.6,-2953.5 -1075.3,-6114.9 -1228.5,-6897 m 9863.5,-305.2 H 17251.5 l 36.3,182.4 c 7.3,36.5 732,3688.5 1262.3,7067.2 138.3,880.9 549.8,1515 1223.2,1884.6 1892.5,1038.8 5183.3,-374.3 5322.4,-435 l 38,-16.5 24.3,-33.4 c 22,-30.2 544.8,-754 1095.8,-2168 506.2,-1299 1130.1,-3450.6 1227.5,-6323.5 l 5.4,-157.8"
         style="fill:#371a45;fill-opacity:1;fill-rule:nonzero;stroke:none"
         id="path63" />
      <path
         d="m 17187,16602.9 c 10.2,-391.7 336.1,-701.1 727.9,-690.9 391.7,10.2 701.1,336.1 690.9,727.9 -10.2,391.8 -336.1,701.1 -727.9,690.9 -391.8,-10.2 -701.1,-336.1 -690.9,-727.9"
         style="fill:#ffffff;fill-opacity:1;fill-rule:nonzero;stroke:none"
         id="path65" />
      <path
         d="m 17898.7,16036.8 c -315.4,0.1 -578.5,251.5 -586.8,569.4 -1.5,58.7 5.6,116.3 20.8,171.4 130.3,-158.3 327.9,-258.9 547.5,-258.9 6.2,0 12.5,0.1 18.8,0.2 60.1,1.6 118.4,10.6 173.8,26.2 l -25.1,-488.5 c -43.5,-11.6 -89.1,-18.4 -136.1,-19.6 -4.3,-0.1 -8.6,-0.2 -12.9,-0.2"
         style="fill:#b9afbe;fill-opacity:1;fill-rule:nonzero;stroke:none"
         id="path67" />
      <path
         d="m 17896.8,17206 c -5.2,0 -10.4,0 -15.6,-0.1 -156.2,-4.1 -301.3,-68.7 -408.8,-182 -107.5,-113.3 -164.5,-261.6 -160.5,-417.7 8.5,-322.3 278.6,-576.2 599.7,-569.2 322.3,8.4 577.6,277.4 569.2,599.6 -4.1,156.1 -68.7,301.3 -181.9,408.8 -109.5,104 -251.8,160.6 -402.1,160.6 m -0.7,-1419.2 c -450.3,0 -822.3,360.2 -834,812.9 -5.9,222.8 75.5,434.6 229,596.3 153.4,161.7 360.7,253.9 583.5,259.8 223.8,5.6 434.7,-75.6 596.4,-229 161.7,-153.5 253.9,-360.8 259.7,-583.7 12,-460 -352.5,-844 -812.5,-856 -7.4,-0.2 -14.8,-0.3 -22.1,-0.3"
         style="fill:#371a45;fill-opacity:1;fill-rule:nonzero;stroke:none"
         id="path69" />
      <path
         d="m 18341.7,17942.4 c 3.6,60.6 6.6,120.7 9.2,180.3 2.7,-53.4 5,-107.4 7,-161.8 -5.5,-6.1 -10.9,-12.3 -16.2,-18.5"
         style="fill:#b9afbe;fill-opacity:1;fill-rule:nonzero;stroke:none"
         id="path71" />
      <path
         d="m 18923.3,14555.8 3705.8,-190.5 c 438.6,-22.6 816.2,317.8 838.9,757 l 101.3,1972 c 19.7,384.5 -239,721.5 -598.4,814.6 -50.9,13.5 -103.9,21.4 -158.6,24.3 l -3705.2,190.5 c -439.2,22.7 -816.8,-317.8 -838.9,-757 l -80.6,-1561.9 -21.2,-410.1 c -22.7,-439.2 318.3,-816.3 756.9,-838.9"
         style="fill:#ffffff;fill-opacity:1;fill-rule:nonzero;stroke:none"
         id="path73" />
      <path
         d="m 20968.3,15475.2 -115.5,0.2 c 38.6,6.5 76.5,13.5 113.4,21.1 0.7,-7.1 1.4,-14.2 2.1,-21.3 m -1993.5,44 h -649.1 l 10.7,208.2 c 174.6,-81.3 393.3,-152.9 667.1,-206.4 l -28.7,-1.8"
         style="fill:#b9afbe;fill-opacity:1;fill-rule:nonzero;stroke:none"
         id="path75" />
      <path
         d="m 22636.7,14517.6 c 355.4,-18.6 660.5,256.3 678.7,612.3 l 101.4,1972.3 c 18.3,355.9 -256.4,660.4 -612.3,678.7 l -3705.4,190.5 c -171.6,8.9 -336.9,-50.3 -465.6,-166.3 -128.6,-116.1 -204.3,-274.5 -213.1,-446 l -101.5,-1972.3 c -8.8,-171.5 50.3,-336.9 166.3,-465.5 116.1,-128.7 274.5,-204.4 446,-213.2 l 3705.6,-190.5 h -0.1 m 33.9,-306.2 c -16.5,0 -33,0.4 -49.5,1.3 h -0.1 l -3705.4,190.5 c -253,13 -486.3,124.4 -657,313.6 -170.7,189.2 -257.5,432.7 -244.5,685.7 l 101.4,1972.3 c 26.9,524 475.9,928.1 999.2,901.5 l 3705.5,-190.5 c 524,-27 928.5,-475.3 901.5,-999.3 l -101.4,-1972.3 c -13,-252.9 -124.4,-486.3 -313.6,-657 -176.8,-159.5 -401,-245.8 -636.1,-245.8"
         style="fill:#371a45;fill-opacity:1;fill-rule:nonzero;stroke:none"
         id="path77" />
      <path
         d="m 18775.4,14578 c 47.5,-12.5 96.6,-19.9 147.9,-22.2 l 3705.8,-190.5 c 321.4,-16.3 610,161.7 750.1,431.7 51,98 82.5,208.1 88.3,325.3 l 45.3,876.1 15,289 41.5,806.9 c 22.6,439.2 -318.4,816.3 -757,838.9 l -800.8,41 c 365.5,-88.5 629.9,-428.3 610.1,-816.7 l -54.4,-1065.2 -46.8,-907.4 c -22.7,-438.6 -400.3,-779.6 -838.9,-756.9 l -2906.1,150"
         style="fill:#ffffff;fill-opacity:1;fill-rule:nonzero;stroke:none"
         id="path79" />
      <path
         d="m 22371.4,14531.3 265.6,-13.7 c 171.3,-8.9 336.5,50.1 465.1,166.2 128.7,116.1 204.4,274.5 213.2,446.1 v 0 l 101.3,1972.3 c 9,171.5 -50.1,336.8 -166.1,465.5 -116.1,128.7 -274.6,204.4 -446.2,213.3 l -238.6,12.3 c 142,-177 220.7,-404 208.3,-643.8 l -101.3,-1972.3 c -12.7,-247.4 -119.5,-476.2 -301.3,-645.9 m 299.7,-319.9 c -16.6,0 -33.2,0.5 -49.9,1.3 l -3705.7,190.7 c -59.4,2.6 -119.6,11.6 -178,26.5 l 45.5,300.3 2906.5,-149.6 c 171.2,-8.9 336.5,50.1 465.1,166.1 128.7,116.2 204.4,274.6 213.2,446.1 l 101.3,1972.3 c 15.9,309.7 -191.5,587.7 -493.3,661 l 43.8,300.8 800.4,-41 c 253.1,-13.2 486.4,-124.5 657.1,-313.7 170.7,-189.3 257.6,-432.8 244.4,-685.8 l -101.3,-1972.1 c -12.9,-253 -124.3,-486.4 -313.6,-657.2 -176.7,-159.4 -400.7,-245.7 -635.5,-245.7"
         style="fill:#371a45;fill-opacity:1;fill-rule:nonzero;stroke:none"
         id="path81" />
      <path
         d="m 21109,16230.3 c -3.3,-72.9 72.4,-666.5 72.4,-666.5 0,0 186.5,-8.5 415.6,-19 286.1,-13 531.7,272.7 548.4,638.2 16.6,365.5 -201.8,672.4 -488,685.5 -193.1,8.8 -415.6,18.9 -415.6,18.9 0,0 -127.4,-538.2 -132.8,-657.1"
         style="fill:#22a7f0;fill-opacity:1;fill-rule:nonzero;stroke:none"
         id="path83" />
      <path
         d="m 21109,16230.3 h 0.5 -0.5 m 114.4,-4.9 c -0.2,-10.2 1.7,-82.2 55.8,-521.5 2.2,-17.5 16.6,-30.7 34.3,-31.5 l 288.7,-13.2 c 224.1,-10.1 415,227.2 428.8,529 6.9,151.4 -31.9,294.6 -109.3,403.3 -71.3,100.2 -167,157.9 -269.5,162.6 l -290.2,13.3 c -18,0.4 -33.2,-11.1 -37,-28.2 -90.3,-396.7 -100.6,-493.4 -101.6,-513.8 m 392.2,-795.5 c -7.9,0 -15.9,0.2 -23.9,0.6 l -288.6,13.2 c -129.7,5.9 -235.2,103.6 -251.1,232.2 -60.5,491.1 -58.2,540.9 -57.3,559.6 3.1,69.7 39.2,256.3 107.1,554.6 28.5,125.2 143.4,212.4 270.6,206 l 290.2,-13.3 c 174.4,-7.9 332.6,-99.8 445.6,-258.5 107,-150.2 160.7,-344.3 151.5,-546.5 -19.1,-418.2 -305.7,-747.8 -644.1,-747.9"
         style="fill:#371a45;fill-opacity:1;fill-rule:nonzero;stroke:none"
         id="path85" />
      <path
         d="m 20693.4,16249.3 c -16.7,-365.5 201.8,-672.4 488,-685.5 286.1,-13.1 531.7,272.7 548.3,638.2 16.7,365.5 -201.7,672.4 -487.9,685.4 -286.2,13.1 -531.7,-272.6 -548.4,-638.1"
         style="fill:#22a7f0;fill-opacity:1;fill-rule:nonzero;stroke:none"
         id="path87" />
      <path
         d="m 21729.9,16202.1 c -3.5,-76 -16.8,-148.1 -38.6,-215.2 7.3,355.6 -208,650.2 -488.4,663.2 -226.7,10.3 -427.8,-167.2 -509.9,-423.2 -0.3,7.6 0,14.9 0.4,22.5 16.8,365.6 262.2,651 548.4,638 286.2,-12.9 504.5,-319.7 488.1,-685.3"
         style="fill:#ffffff;fill-opacity:1;fill-rule:nonzero;stroke:none"
         id="path89" />
      <path
         d="m 20944.4,15804.6 c -90.5,104.6 -144.6,263.9 -136.6,439.5 v 0 c 0.4,10.5 1.1,21 2,31.4 32.9,-50.4 71.7,-94.2 115.2,-129.9 0.2,-5.6 0.4,-11.1 0.6,-16.8 0,-0.3 0,-0.6 0,-0.9 0,-0.2 0,-0.5 0,-0.7 2.7,-81.1 7.3,-162.1 13.2,-241.9 2,-27 3.9,-54 5.6,-80.7"
         style="fill:#2976b4;fill-opacity:1;fill-rule:nonzero;stroke:none"
         id="path91" />
      <path
         d="m 20807.8,16244.1 c -13.8,-301.9 156.2,-555.8 378.8,-565.9 101.8,-4.6 203,44.1 283.2,137.3 87,101.3 138.7,240.4 145.6,391.7 6.9,151.3 -31.9,294.6 -109.3,403.3 -71.3,100.2 -167,157.9 -269.5,162.6 -224.3,10.1 -415,-227.2 -428.8,-529 v 0 m 392.9,-795.2 c -8.2,0 -16.3,0.2 -24.5,0.6 -348.8,15.9 -616.6,377 -597.2,805 v 0 c 19.6,428 317.8,763.9 668,747.3 174.3,-8 332.6,-99.8 445.6,-258.5 106.9,-150.3 160.7,-344.3 151.5,-546.6 -9.2,-202.1 -80.5,-390.5 -200.7,-530.4 -121,-140.8 -277.4,-217.4 -442.7,-217.4"
         style="fill:#371a45;fill-opacity:1;fill-rule:nonzero;stroke:none"
         id="path93" />
      <path
         d="m 20076.1,14396.3 c -1.1,0 -2.1,0 -3.2,0.1 -63.2,1.7 -113,54.4 -111.3,117.6 l 36.3,1307.9 -615.3,432.5 88.6,1849 c 3,63.2 57.6,110.8 119.8,108.9 63.2,-3 111.9,-56.7 108.9,-119.8 l -82.6,-1723.2 612.9,-430.8 -39.7,-1430.9 c -1.7,-62.1 -52.6,-111.3 -114.4,-111.3"
         style="fill:#371a45;fill-opacity:1;fill-rule:nonzero;stroke:none"
         id="path95" />
      <path
         d="m 26786.5,17127.8 c 0,0 342.9,-272.9 358,-693.9 17.4,-486.8 -287.1,-684.2 -287.1,-684.2 0,0 -1332.8,-682.4 -3471.1,-229 0,0 -629.4,795.5 71.7,1244.4 0,0 2256.8,-310 3328.5,362.7"
         style="fill:#ffffff;fill-opacity:1;fill-rule:nonzero;stroke:none"
         id="path97" />
      <path
         d="m 26103.9,15661.1 c 106.1,167.1 190.7,344.8 257.6,529.1 268.5,99.6 464.6,317.5 527.6,577.1 53.5,-92.6 98.1,-207.9 102.8,-338.9 12.9,-358.6 -177.9,-520.5 -212.4,-546.9 -46.9,-22.2 -282.4,-128.6 -675.6,-220.4"
         style="fill:#b9afbe;fill-opacity:1;fill-rule:nonzero;stroke:none"
         id="path99" />
      <path
         d="m 23475.9,15657.9 c 1933.4,-393.7 3188.4,169 3303.6,223.6 34.5,26.4 225.3,188.3 212.4,546.9 -8.3,232.1 -142,414.9 -228.3,509.5 -1044.9,-566.5 -2905.2,-375.5 -3267.4,-331.6 -120.1,-88.3 -189,-192.8 -210,-318.1 -42.3,-252.3 120.1,-526.8 189.7,-630.3 m 1358.9,-446.5 c -436,0 -931.8,43.7 -1480.1,159.9 l -53.9,11.5 -34.2,43.1 c -14.6,18.5 -357.6,458.3 -281.5,912.7 38,226.7 169.4,413.4 390.5,555 l 47.4,30.3 55.7,-7.6 c 21.9,-3 2214.7,-294.4 3226.6,340.8 l 91.6,57.5 84.6,-67.3 c 16.2,-13 398.1,-322.3 415.5,-808 20.4,-566.8 -341.2,-807.8 -356.6,-817.7 l -13.5,-7.8 c -42.1,-21.6 -805.7,-402.4 -2092.1,-402.4"
         style="fill:#371a45;fill-opacity:1;fill-rule:nonzero;stroke:none"
         id="path101" />
      <path
         d="m 20923.7,19767.7 c -118.7,0 -237.7,3.7 -356.9,11.3 -254.6,16 -511,48.8 -766.3,100.3 -296.1,58.8 -591.1,142 -883.4,250.3 -96.6,36.3 -192,74.5 -285.1,114.9 -3.8,1.7 -7.6,3.3 -11.5,5 28.4,168.9 56.5,338.5 84.4,508.3 13.4,-4.9 26.8,-9.7 40.2,-14.5 275,-98.5 557.8,-176.8 841.2,-233.1 256.5,-51.6 521.2,-86.2 786.6,-103 121.5,-7.7 243.8,-11.5 366.5,-11.5 191.3,0 383.6,9.3 574.9,28 112.4,11.4 225.7,25.9 337,43.1 1405.2,221 2660.8,936.2 3563.2,1979.3 73.3,-130.2 156.9,-286 247.4,-467.1 -906.1,-1158.6 -2220.8,-1917.3 -3650,-2142 -109.1,-16.8 -218.6,-30.9 -328.5,-42 -185.2,-18 -372,-27.3 -559.7,-27.3"
         style="fill:#b9afbe;fill-opacity:1;fill-rule:nonzero;stroke:none"
         id="path103" />
      <path
         d="m 18620.5,20249.5 c -48.4,21 -96.4,42.6 -143.8,64.9 27.8,165.8 55.4,332.4 82.8,499.2 38.4,-15.3 78.4,-30.7 120.3,-46.5 8.4,-3.2 16.7,-6.2 25.1,-9.3 -27.9,-169.8 -56,-339.4 -84.4,-508.3 m 6841.4,1729.5 c -90.5,181.1 -174.1,336.9 -247.4,467.1 35.9,41.6 71.2,83.5 106,126.1 72.4,-125.9 155.6,-277.7 246.1,-455.1 -34.3,-46.7 -69.2,-92.7 -104.7,-138.1"
         style="fill:#371a45;fill-opacity:1;fill-rule:nonzero;stroke:none"
         id="path105" />
      <path
         d="m 15811.4,23323 c 499.2,-824 1206.3,-1526.8 2081.4,-2021.9 178.5,-100.8 363.4,-193.1 554.9,-275.9 93.1,-40.5 188.5,-78.5 285.2,-115 292.1,-108.4 587.2,-191.5 883.5,-250.3 255.2,-51.4 511.4,-84.3 766.2,-100.3 307.7,-19.6 614.1,-13.5 916.3,16 110.2,11.1 219.8,25.1 328.7,42 1992.9,313.4 3762.6,1664.6 4514.1,3690.5 1107.8,2984.2 -413.7,6301.1 -3397.4,7408.9 -574.8,212.9 -1162.4,329.4 -1743.8,355.3 -67.9,3.6 -136.2,5.4 -204.4,5.6 -182.5,2 -364,-4.7 -544.2,-20 -416.5,-35.6 -825.8,-116.7 -1220.3,-239.6 -394.6,-122.4 -775.3,-287.2 -1134.1,-490.5 -114.2,-64.5 -226.2,-132.9 -336,-205.4 -164.5,-108.9 -323.8,-225.6 -477.2,-351.8 -765.6,-625.7 -1380.1,-1457.4 -1748.8,-2451.6 -637.4,-1716.6 -404.4,-3543 475.9,-4996"
         style="fill:#ffffff;fill-opacity:1;fill-rule:nonzero;stroke:none"
         id="path107" />
      <path
         d="m 15824.5,23331 c 507.8,-838.2 1225.6,-1535.5 2075.9,-2016.5 180.1,-101.7 366.3,-194.3 553.4,-275.2 86,-37.4 179.1,-75 284.6,-114.8 287.1,-106.5 583.5,-190.5 881,-249.6 249.1,-50.1 506.2,-83.7 764.2,-100 301.6,-19.2 609.2,-13.8 913.8,16 109.4,11 219.7,25.2 327.8,41.9 2054.6,323 3779.8,1733.4 4502.1,3680.7 1103,2971.2 -417.1,6285.9 -3388.4,7389.1 -563.8,208.8 -1148.9,328.1 -1739.1,354.3 -64.5,3.5 -131.2,5.4 -203.8,5.7 -181.3,1.8 -363.8,-4.8 -542.7,-20 -411.5,-35.1 -821,-115.5 -1217.2,-239 -392.7,-121.8 -773.2,-286.4 -1131.1,-489.2 -115.3,-65.2 -228,-134.1 -335.1,-204.9 -167.3,-110.6 -327.4,-228.6 -475.9,-350.7 -786,-642.5 -1389.1,-1488 -1744.2,-2445.1 -614.3,-1654.7 -441.3,-3470.8 474.7,-4982.7 m 4915,-2798.1 c -119.8,0 -239.3,3.8 -357.9,11.3 -259.3,16.4 -517.8,50.2 -768.2,100.6 -299.1,59.4 -597.1,143.8 -885.8,251 -106.1,40 -199.6,77.7 -286,115.3 -188.1,81.3 -375.3,174.4 -556.4,276.7 -854.8,483.6 -1576.5,1184.6 -2087,2027.2 -920.8,1520.1 -1094.7,3345.9 -477.2,5009.4 357,962.2 963.3,1812.2 1753.5,2458.1 149.3,122.8 310.3,241.4 478.5,352.7 107.7,71.1 221,140.4 336.9,206 359.8,203.8 742.3,369.2 1137.1,491.7 398.3,124.2 810,205 1223.6,240.3 179.9,15.3 363.5,22.1 545.6,20.1 73.1,-0.3 140.2,-2.1 205.1,-5.7 593.3,-26.4 1181.5,-146.2 1748.3,-356.2 2987.2,-1109.1 4515.4,-4441.5 3406.5,-7428.6 -726.2,-1957.7 -2460.6,-3375.6 -4526.1,-3700.4 -108.7,-16.8 -219.5,-31 -329.5,-42.1 -186.6,-18.2 -374.2,-27.4 -561,-27.4"
         style="fill:#371a45;fill-opacity:1;fill-rule:nonzero;stroke:none"
         id="path109" />
      <path
         d="m 21711.2,20786.3 c 823.8,259.7 1574.2,691.6 2183.2,1271.3 599.6,570.6 1041.1,1252.5 1313.3,2019.1 188.4,-110.7 387.8,-173.7 591,-187 -777.4,-1622.8 -2298.2,-2786.6 -4087.5,-3103.4 m -1858.4,21.7 c -72.6,0 -145.6,1.3 -218.5,3.9 -11.1,2.3 -22.2,4.5 -33.3,6.8 -0.1,0.1 -0.2,0.1 -0.4,0.1 -2,0.4 -3.9,0.8 -6,1.3 -0.3,0 -0.6,0.1 -0.9,0.1 -1.8,0.4 -3.6,0.8 -5.5,1.2 -0.4,0.1 -0.9,0.2 -1.4,0.3 -1.6,0.3 -3.2,0.7 -4.9,1 -0.7,0.2 -1.4,0.3 -2.1,0.5 -1.4,0.3 -2.9,0.6 -4.4,0.9 -0.8,0.2 -1.6,0.3 -2.5,0.5 -1.3,0.3 -2.6,0.6 -4,0.9 -0.9,0.2 -1.9,0.4 -2.9,0.6 -1.2,0.3 -2.4,0.5 -3.6,0.8 -1.1,0.2 -2.2,0.5 -3.3,0.7 -1.1,0.2 -2.1,0.4 -3.1,0.7 -1.3,0.2 -2.6,0.5 -3.9,0.8 -0.9,0.2 -1.8,0.4 -2.7,0.6 -1.4,0.3 -2.8,0.6 -4.2,0.9 -0.8,0.2 -1.6,0.4 -2.4,0.5 -1.5,0.4 -3,0.7 -4.5,1 -0.7,0.2 -1.4,0.3 -2.1,0.5 -1.6,0.3 -3.2,0.7 -4.8,1 -0.6,0.2 -1.2,0.3 -1.8,0.4 -1.7,0.4 -3.4,0.8 -5.2,1.2 -0.4,0.1 -0.9,0.2 -1.4,0.3 -1.8,0.4 -3.6,0.8 -5.4,1.2 -0.4,0.1 -0.9,0.2 -1.3,0.3 -1.8,0.4 -3.7,0.8 -5.6,1.2 -0.3,0.1 -0.7,0.2 -1.1,0.3 -2,0.4 -3.9,0.9 -5.8,1.3 -0.3,0.1 -0.5,0.1 -0.8,0.2 -2.1,0.5 -4.1,0.9 -6.1,1.4 -0.2,0 -0.4,0.1 -0.6,0.1 -2.1,0.5 -4.2,1 -6.4,1.5 -0.1,0 -0.2,0 -0.3,0 -2.1,0.5 -4.3,1 -6.5,1.5 l -0.2,0.1 c -81.5,18.7 -162.7,39.4 -243.5,61.8 -0.2,0.1 -0.5,0.2 -0.7,0.2 -2,0.6 -4,1.1 -6,1.7 -0.5,0.1 -0.9,0.3 -1.4,0.4 -1.7,0.5 -3.4,0.9 -5.1,1.4 -1,0.3 -2,0.6 -3,0.9 -1.2,0.3 -2.4,0.7 -3.7,1 -1.2,0.3 -2.3,0.7 -3.5,1 -1,0.3 -2,0.6 -3.1,0.9 -1.2,0.3 -2.5,0.7 -3.8,1 -0.9,0.3 -1.9,0.6 -2.9,0.9 -1.4,0.4 -2.8,0.8 -4.1,1.2 -0.8,0.2 -1.7,0.4 -2.4,0.6 -1.5,0.5 -3.1,0.9 -4.6,1.3 -0.7,0.2 -1.4,0.4 -2.1,0.6 -1.6,0.5 -3.2,1 -4.8,1.4 -0.6,0.2 -1.2,0.4 -1.8,0.5 -1.7,0.5 -3.3,1 -5,1.5 -0.5,0.1 -1.1,0.3 -1.6,0.5 -1.8,0.5 -3.5,1 -5.2,1.5 -0.5,0.1 -1,0.2 -1.4,0.4 -1.9,0.5 -3.7,1.1 -5.5,1.6 -0.4,0.1 -0.8,0.2 -1.1,0.3 -1.9,0.6 -3.9,1.1 -5.8,1.7 -0.2,0.1 -0.5,0.2 -0.8,0.2 -2,0.6 -3.9,1.2 -5.8,1.7 -0.3,0.1 -0.6,0.2 -0.8,0.3 -2,0.6 -4,1.2 -6,1.8 -0.2,0 -0.4,0.1 -0.6,0.1 -2,0.6 -4.1,1.2 -6.1,1.8 -0.2,0.1 -0.4,0.1 -0.5,0.2 -2.2,0.6 -4.3,1.3 -6.4,1.9 -0.1,0 -0.1,0 -0.1,0 -2.2,0.7 -4.4,1.3 -6.5,2 -0.1,0 -0.1,0 -0.1,0 -114.7,34.4 -228.3,72.5 -340.3,114.1 v 0 c -1.6,0.6 -3.2,1.2 -4.8,1.8 -101.4,38.3 -190.8,74.4 -273.7,110.6 v 0 c -4.3,1.8 -8.6,3.7 -12.9,5.5 -142,61.8 -283.5,130.5 -421.9,204.9 588.6,-187.9 1193.9,-282.5 1792.7,-282.5 898.5,0 1782.3,213.2 2571.9,643.5 1119.4,610.1 1902.2,1574.8 2262.1,2747.9 5.9,8.1 11.7,16.2 17.5,24.3 71.2,-89.1 148.6,-170.8 231.6,-243.9 -253.6,-757.1 -679.4,-1428.8 -1265.3,-1986.4 -988.9,-941.2 -2374.8,-1470.8 -3831.2,-1470.7 m 6132.5,7486.6 c -65.1,11 -130.7,16.8 -196.6,17.4 -15.1,199.3 -40.6,396.9 -76.2,592.3 102.9,-197.7 194,-401.3 272.8,-609.7"
         style="fill:#b9afbe;fill-opacity:1;fill-rule:nonzero;stroke:none"
         id="path111" />
      <path
         d="m 15912.6,23384.3 c 498.6,-823.1 1203.5,-1507.8 2038.5,-1980.2 176.9,-99.9 359.8,-190.9 543.6,-270.2 84.6,-36.9 176.1,-73.8 280,-113 281.5,-104.5 572.6,-187 864.7,-245 244.9,-49.2 497.3,-82.3 750.6,-98.2 296.4,-18.8 598.3,-13.6 897.4,15.7 107.3,10.8 215.8,24.7 322.1,41.1 2017.6,317.3 3711.9,1702.4 4421.3,3614.8 1083.2,2918 -409.6,6173.3 -3327.7,7256.8 -553.7,205.1 -1128.4,322.2 -1707.9,348 -63.8,3.4 -128.7,5.2 -199.7,5.5 -178.2,1.7 -357.9,-4.7 -533.5,-19.6 -404,-34.5 -806.2,-113.4 -1195.3,-234.7 -385.7,-119.7 -759.5,-281.3 -1110.9,-480.4 -113.3,-64.1 -224,-131.8 -329.1,-201.3 -164.3,-108.6 -321.5,-224.5 -467.3,-344.4 -772.1,-631 -1364.3,-1461.3 -1713,-2401.3 -603.3,-1625.1 -433.4,-3408.7 466.2,-4893.6 M 20739.4,20430 c -121.9,0 -243.6,3.8 -364.3,11.5 -263.9,16.6 -527.1,51.1 -782,102.4 -304.2,60.4 -607.5,146.3 -901.3,255.3 -108.3,40.9 -203.3,79.2 -291.3,117.6 -191.2,82.5 -381.7,177.2 -565.9,281.3 -870.3,492.3 -1604.8,1205.9 -2124.5,2063.6 -937.2,1547.1 -1114.2,3405.4 -485.6,5098.5 363.3,979.4 980.5,1844.6 1784.9,2502 151.8,124.9 315.6,245.7 486.8,358.8 109.6,72.5 225,143.1 343,209.8 366.1,207.4 755.5,375.8 1157.3,500.5 405.3,126.3 824.3,208.5 1245.4,244.5 183.2,15.6 370.3,22.6 555.4,20.4 74.1,-0.3 143,-2.2 209.6,-5.8 602.9,-26.8 1201.7,-148.8 1778.5,-362.5 3040.5,-1128.8 4595.8,-4520.7 3467.3,-7560.9 -739.2,-1992.6 -2504.4,-3435.7 -4606.8,-3766.3 -110.6,-17.1 -223.3,-31.5 -335.1,-42.8 -190.1,-18.6 -381.2,-27.9 -571.4,-27.9"
         style="fill:#371a45;fill-opacity:1;fill-rule:nonzero;stroke:none"
         id="path113" />
      <path
         d="m 15941.9,23402.1 c 495.6,-818.1 1196.2,-1498.6 2026.1,-1968.1 175.8,-99.3 357.6,-189.7 540.3,-268.6 84.2,-36.7 175.1,-73.4 278.5,-112.4 279.6,-103.8 569,-185.7 859.3,-243.4 243.4,-49 494.3,-81.8 746.1,-97.7 294.6,-18.7 594.6,-13.5 891.9,15.6 106.5,10.8 214.4,24.6 320.1,40.9 2005.3,315.3 3689.3,1692 4394.4,3592.8 1076.6,2900.3 -407.1,6135.8 -3307.4,7212.7 -550.4,203.9 -1121.5,320.3 -1697.5,345.9 -63.5,3.4 -127.9,5.2 -198.3,5.5 -178.3,1.9 -356,-4.6 -530.5,-19.5 -401.5,-34.3 -801.2,-112.7 -1188,-233.2 -383.4,-119 -754.9,-279.7 -1104.2,-477.6 -112.6,-63.7 -222.6,-131 -327.1,-200 -163.3,-108 -319.5,-223.2 -464.4,-342.3 -767.4,-627.3 -1356.1,-1452.5 -1702.6,-2386.8 -599.7,-1615.1 -430.8,-3387.9 463.3,-4863.8 m 4797.5,-3006.4 c -122.7,0 -245,3.8 -366.5,11.5 -265.4,16.8 -530.1,51.4 -786.6,103 -305.8,60.8 -611,147.2 -906.5,256.9 -108.9,41 -204.5,79.6 -293,118.2 -192.2,83 -383.8,178.3 -569.1,282.9 -875.3,495.3 -1614.2,1213 -2136.9,2075.7 -942.7,1556.1 -1120.7,3425.3 -488.5,5128.2 365.5,985.1 986.3,1855.4 1795.4,2516.7 152.6,125.5 317.4,247 489.5,360.9 110.4,72.9 226.5,143.9 345.1,211 368.2,208.6 759.9,377.9 1164,503.4 407.6,127 829.2,209.7 1252.7,245.9 184.3,15.7 372.6,22.4 558.7,20.6 74.5,-0.3 143.8,-2.3 211,-5.9 606.2,-27 1208.4,-149.7 1788.6,-364.6 3058.3,-1135.4 4622.7,-4547.1 3487.5,-7605.1 -743.4,-2004.2 -2518.9,-3455.7 -4633.5,-3788.2 -111.3,-17.2 -224.6,-31.7 -337,-43.1 -191.3,-18.7 -383.6,-28 -574.9,-28"
         style="fill:#371a45;fill-opacity:1;fill-rule:nonzero;stroke:none"
         id="path115" />
      <path
         d="m 16732.3,22168.3 c 3486.4,-2193.6 7993,-291.7 8038.5,3787.9 31,2775.5 -2662.7,4948.7 -5330.3,4807.7 -1941.5,-102.6 -3792.1,-1052.1 -4456.6,-4108.9 0,0 -85.2,-1398.7 336.7,-2306.7 421.8,-908.1 985.4,-1720 985.4,-1720 l 426.3,-460"
         style="fill:#371a45;fill-opacity:1;fill-rule:nonzero;stroke:none"
         id="path117" />
      <path
         d="m 24770.7,25956.2 c -45.4,-4079.5 -4552.1,-5981.4 -8038.5,-3788 l -86.3,93.3 c 3742.9,-483 7333.4,1917.6 7456.1,6041.4 428.5,-691.1 678.1,-1490.2 668.7,-2346.7"
         style="fill:#220f2d;fill-opacity:1;fill-rule:nonzero;stroke:none"
         id="path119" />
      <path
         d="m 19634.3,20811.9 c 1535.6,-55.8 3011.5,478.7 4049.7,1466.8 991.5,943.6 1524.2,2213.5 1540.7,3672.2 14.9,1334.6 -552.3,2621.7 -1597.4,3624.1 -1144.3,1097.7 -2726.8,1705.8 -4233.2,1625.9 -842.2,-44.6 -1590.8,-232.5 -2225.5,-558.5 -761.1,-625.8 -1345.4,-1447.2 -1690,-2376.5 -599.7,-1615.1 -430.8,-3387.9 463.3,-4863.8 495.6,-818.1 1196.2,-1498.6 2026.1,-1968.1 175.8,-99.3 357.6,-189.7 540.3,-268.6 84.2,-36.7 175.1,-73.4 278.5,-112.4 275.8,-102.3 561.1,-183.5 847.5,-241.1 m 217.6,-309.2 c -80.3,0 -160.7,1.5 -241.3,4.6 l -23.9,2.8 c -306.2,60.9 -611.4,147.3 -906.9,257 -108.9,41 -204.5,79.6 -293,118.2 -192.2,83 -383.8,178.3 -569.1,282.9 -875.3,495.3 -1614.2,1213 -2136.9,2075.7 -942.7,1556.1 -1120.7,3425.3 -488.5,5128.2 365.5,985.1 986.3,1855.4 1795.4,2516.7 l 12.2,10.1 14.1,7.3 c 676.5,350.6 1471.9,552.4 2364,599.5 1590.1,84 3256.7,-555.4 4460.7,-1710.4 1106.5,-1061.4 1707.1,-2427.9 1691.2,-3847.8 -17.4,-1543.1 -582.9,-2888.2 -1635.5,-3889.9 -1045.5,-995.1 -2507.6,-1554.9 -4042.5,-1554.9"
         style="fill:#371a45;fill-opacity:1;fill-rule:nonzero;stroke:none"
         id="path121" />
      <path
         d="m 16830.5,22286.9 c 1719,-1073.6 3810,-1182.2 5461.5,-282 1459.2,795.2 2307.1,2236.1 2326.2,3953 13.2,1182.7 -489.7,2323.4 -1416,3211.9 -1014.7,973.3 -2417.5,1512.2 -3753.6,1441.7 -2311.2,-122.1 -3762.2,-1460.2 -4313,-3977 -6.5,-132.5 -57.6,-1401.9 323.4,-2221.9 388.3,-835.8 905.5,-1599.6 966.5,-1688.7 l 405,-437 m 3035.7,-1193.6 c -1097.4,0 -2216.9,317.7 -3215.2,945.9 l -17,10.6 -453.4,491.5 c -23.3,33.6 -575.9,833.2 -998.5,1742.7 -433.1,932.3 -354.2,2321.6 -350.6,2380.3 l 3.2,23.1 c 581.6,2675.6 2128.6,4098.5 4597.8,4229 1418.5,74.3 2906.6,-495.7 3981,-1526.3 987.9,-947.5 1524.1,-2167.6 1510,-3435.6 -20.4,-1830.7 -926.3,-3368 -2485.4,-4217.7 -789.6,-430.3 -1673.4,-643.5 -2571.9,-643.5"
         style="fill:#371a45;fill-opacity:1;fill-rule:nonzero;stroke:none"
         id="path123" />
      <path
         d="m 27311.5,26332.9 c 124.2,-1130.1 -439,-2150.7 -1257.9,-2279.6 -819,-128.9 -1583.6,682.8 -1707.8,1812.9 -124.2,1130.1 439,2150.7 1258,2279.6 818.9,128.9 1583.5,-682.8 1707.7,-1812.9"
         style="fill:#ffffff;fill-opacity:1;fill-rule:nonzero;stroke:none"
         id="path125" />
      <path
         d="m 25882.3,24192.5 c -224.8,0 -447.6,80.4 -651.8,236.5 -332.4,254 -580,683.7 -688.5,1181.2 45.5,-5.7 91.5,-8.7 137.8,-8.7 56.4,0 113.3,4.4 170.5,13.3 86.9,13.7 175.5,36.9 264.1,68.7 23.9,-161 65.6,-316.1 122.9,-460.3 6.3,-18.9 12.9,-37.7 19.8,-56.4 124.9,-336.4 334.2,-573.4 579,-692.3 50.4,-30 102.7,-55.8 157,-77.1 116.5,-45.7 234.7,-68.5 352.3,-68.5 11.7,0 23.4,0.2 35.1,0.7 -109.1,-63 -226.6,-106 -350.7,-125.5 -49.1,-7.8 -98.4,-11.6 -147.5,-11.6 m 753.7,3382.7 c -40.5,14.7 -81.1,26.6 -121.9,35.8 0.5,28.9 0.4,58 -0.5,87.2 42.4,-38.1 83.3,-79.2 122.4,-123"
         style="fill:#b9afbe;fill-opacity:1;fill-rule:nonzero;stroke:none"
         id="path127" />
      <path
         d="m 25775.1,28006.6 c -49.2,0 -98.5,-3.8 -147.6,-11.6 -738.4,-116.1 -1245.2,-1063.7 -1130,-2112.1 67.2,-610.9 341.2,-1154.4 733,-1453.9 248.9,-190.3 525.4,-268.1 799.3,-224.9 738.4,116.2 1245.2,1063.7 1130,2112.1 -67.1,610.9 -341.1,1154.4 -732.9,1453.9 -204.2,156.1 -427.1,236.5 -651.8,236.5 m 105.1,-4119.6 c -291.1,0 -576.5,101.7 -835.1,299.4 -463.6,354.4 -773.8,960.6 -851,1663.1 -132.8,1208.2 488.9,2305.9 1385.9,2447.1 358.3,56.4 715.4,-41.8 1032.3,-284 463.6,-354.3 773.8,-960.5 850.9,-1663 132.8,-1208.2 -488.9,-2305.9 -1385.9,-2447.1 -65.8,-10.3 -131.6,-15.5 -197.1,-15.5"
         style="fill:#371a45;fill-opacity:1;fill-rule:nonzero;stroke:none"
         id="path129" />
      <path
         d="m 27502.8,25520.2 c -181.3,-866.7 -854.7,-1362.7 -1503.9,-1107.9 -649.2,254.8 -1028.5,1163.9 -847.2,2030.5 181.4,866.7 854.7,1362.7 1503.9,1107.9 649.3,-254.8 1028.6,-1163.9 847.2,-2030.5"
         style="fill:#ffffff;fill-opacity:1;fill-rule:nonzero;stroke:none"
         id="path131" />
      <path
         d="m 26309.3,27602.1 c -150.7,0 -300.3,-38.8 -443.2,-116 -343.7,-185.7 -598.5,-567.2 -698.8,-1046.6 -179.5,-857.9 196.2,-1760.7 837.4,-2012.4 262.1,-102.8 533,-85.6 783.7,49.8 343.8,185.7 598.5,567.1 698.8,1046.5 179.5,858 -196.1,1760.8 -837.4,2012.5 -112.6,44.1 -226.9,66.2 -340.5,66.2 m 36.1,-3273.2 c -117.6,0 -235.8,22.8 -352.3,68.5 -655.2,257.1 -1039.6,1176.1 -857,2048.7 102.2,488.6 362.8,877.9 714.8,1068.1 259.2,139.9 539.4,157.8 810.6,51.4 655.1,-257.1 1039.5,-1176.2 856.9,-2048.7 -102.2,-488.6 -362.8,-877.9 -714.8,-1068.1 -147.7,-79.8 -302.4,-119.9 -458.2,-119.9"
         style="fill:#371a45;fill-opacity:1;fill-rule:nonzero;stroke:none"
         id="path133" />
      <path
         d="m 25836.1,24474.5 c -244.8,118.9 -454.1,355.9 -579,692.3 -6.9,18.7 -13.5,37.5 -19.8,56.4 128.7,-323.9 336.3,-592.5 598.8,-748.7"
         style="fill:#8c7b94;fill-opacity:1;fill-rule:nonzero;stroke:none"
         id="path135" />
      <path
         d="m 26211.4,24386.9 c -35.6,0 -70.9,2.3 -105.9,6.7 -33.7,9.2 -67.3,20.4 -100.8,33.5 -446.6,175.3 -764.4,666.4 -855.5,1238.2 -11,140.5 -7.1,282.6 10.6,422 197.7,-420.1 538.7,-653.2 900.8,-653.2 190.9,0 387.7,64.8 572.4,201.3 345.7,255.2 569.2,702.7 629.7,1180.7 19.3,-40.3 36.9,-83.1 53.4,-127.1 274.5,-739.9 36.2,-1680.5 -532.5,-2100.8 -184.6,-136.5 -381.3,-201.3 -572.2,-201.3"
         style="fill:#b9afbe;fill-opacity:1;fill-rule:nonzero;stroke:none"
         id="path137" />
      <path
         d="m 26105.5,24393.6 c -92.7,11.8 -183.3,39 -269.4,80.9 -262.5,156.2 -470.1,424.8 -598.8,748.7 -47.4,142.5 -76.3,291.5 -88.1,442.1 91.1,-571.8 408.9,-1062.9 855.5,-1238.2 33.5,-13.1 67.1,-24.3 100.8,-33.5"
         style="fill:#371a45;fill-opacity:1;fill-rule:nonzero;stroke:none"
         id="path139" />
      <path
         d="m 26276.9,27551.2 c -33.4,0 -66.7,-2.7 -99.9,-8.2 -529.3,-87.6 -902.4,-860.4 -814.8,-1687.5 54.5,-514.3 271.5,-961.8 580.5,-1197 170.4,-129.7 356.5,-182.5 538.1,-152.4 529.3,87.6 902.4,860.4 814.8,1687.5 -54.5,514.3 -271.5,961.8 -580.5,1197 -139.2,106 -289,160.6 -438.2,160.6 z m 102,-3358.8 c -215.3,0 -427.4,75.8 -621.1,223.1 -374.6,285.2 -636,811.5 -699.2,1407.8 -107.6,1016.2 361.8,1903.9 1068.6,2020.9 266.7,44 533.8,-28.8 772.8,-210.6 374.6,-285.2 636,-811.5 699.2,-1407.9 107.7,-1016.1 -361.7,-1903.8 -1068.5,-2020.8 -50.6,-8.4 -101.3,-12.5 -151.8,-12.5"
         style="fill:#371a45;fill-opacity:1;fill-rule:nonzero;stroke:none"
         id="path141" />
      <path
         d="m 16600.2,23846 c -660.4,533.1 -1055.4,1162.9 -1127.6,2070.5 -6.8,89.5 -10.6,182.1 -11.5,277.2 -0.3,21.9 -0.1,43.6 0.5,65.5 l 0.2,1.3 c 11.7,192.8 36.7,445.5 88.7,728.3 156.3,852.7 556,1978.7 1571.6,2558.9 807.4,461.4 1619.9,602 2280.5,602 893.1,0 1508.9,-256.9 1461.8,-325.9 0,0 -2600.6,-304.4 -3956.5,-1882.4 -1.4,-1.7 -2.8,-3.4 -4.2,-5 -285.1,-332.4 -475.1,-736 -553,-1166.9 -103.1,-569.8 -90.7,-977.6 -65.9,-1336.2 75.8,-1090.5 315.4,-1587.3 315.4,-1587.3"
         style="fill:#c3bac7;fill-opacity:1;fill-rule:nonzero;stroke:none"
         id="path143" />
      <path
         d="m 23064.4,26388.4 c -337.5,0 -669.7,249.7 -802,635.1 -161.1,468.9 34.5,961.1 436.9,1099.3 71.7,24.6 145.1,36.3 218.3,36.3 337.4,0 669.6,-249.7 802,-635.1 161,-468.9 -34.6,-961.1 -437,-1099.3 -71.7,-24.6 -145.1,-36.3 -218.2,-36.3"
         style="fill:#c3bac7;fill-opacity:1;fill-rule:nonzero;stroke:none"
         id="path145" />
      <path
         d="m 23353.7,25442.1 c -51.2,39.8 -94.7,94.5 -123.9,160.7 -82.7,187.3 -19.3,396.6 141.4,467.5 36.3,16 74.4,23.6 112.7,23.6 53.9,0 108,-15 157.5,-42.8 -85.3,-210.7 -181.5,-413.7 -287.7,-609"
         style="fill:#c3bac7;fill-opacity:1;fill-rule:nonzero;stroke:none"
         id="path147" />
      <path
         d="m 23557.8,25368.4 c -71.4,0 -143.1,26.4 -204.1,73.7 106.2,195.3 202.4,398.3 287.7,609 71.1,-39.9 132.8,-106 170.5,-191.6 82.6,-187.3 19.3,-396.6 -141.5,-467.5 -36.3,-16 -74.4,-23.6 -112.6,-23.6"
         style="fill:#bcb7c0;fill-opacity:1;fill-rule:nonzero;stroke:none"
         id="path149" />
      <path
         d="M 34635.2,15228.6 C 32680.6,10991.2 26934.1,7921.7 20149,7921.7 c -6785.1,0 -12531.6,3069.5 -14486.17,7306.9 H 34635.2"
         style="fill:#371a45;fill-opacity:1;fill-rule:nonzero;stroke:none"
         id="path151" />
      <path
         d="m 24697.5,10508.3 -180.3,-27.9 c -36.1,-5.5 -64.5,-33.9 -70,-70 l -27.9,-180.3 -27.8,180.3 c -5.6,36.1 -33.9,64.5 -70,70 l -180.3,27.9 180.3,27.8 c 36.1,5.6 64.4,33.9 70,70.1 l 27.8,180.2 27.9,-180.2 c 5.5,-36.2 33.9,-64.5 70,-70.1 l 180.3,-27.8"
         style="fill:#ffe266;fill-opacity:1;fill-rule:nonzero;stroke:none"
         id="path153" />
      <path
         d="m 20047.5,11308.3 -180.3,-27.9 c -36.1,-5.5 -64.5,-33.9 -70,-70 l -27.9,-180.3 -27.8,180.3 c -5.6,36.1 -33.9,64.5 -70,70 l -180.3,27.9 180.3,27.8 c 36.1,5.6 64.4,33.9 70,70.1 l 27.8,180.2 27.9,-180.2 c 5.5,-36.2 33.9,-64.5 70,-70.1 l 180.3,-27.8"
         style="fill:#ffe266;fill-opacity:1;fill-rule:nonzero;stroke:none"
         id="path155" />
      <path
         d="m 21776.3,9525.1 -181.4,-28 c -36.4,-5.6 -64.9,-34.2 -70.5,-70.5 l -28,-181.4 -28,181.4 c -5.6,36.3 -34.2,64.9 -70.5,70.5 l -181.4,28 181.4,28 c 36.3,5.6 64.9,34.1 70.5,70.5 l 28,181.4 28,-181.4 c 5.6,-36.4 34.1,-64.9 70.5,-70.5 l 181.4,-28"
         style="fill:#ffe266;fill-opacity:1;fill-rule:nonzero;stroke:none"
         id="path157" />
      <path
         d="m 29995.1,11572.6 -244.6,-37.8 c -49,-7.6 -87.5,-46 -95.1,-95 l -37.7,-244.6 -37.8,244.6 c -7.6,49 -46,87.4 -95,95 l -244.7,37.8 244.7,37.8 c 49,7.5 87.4,46 95,95 l 37.8,244.6 37.7,-244.6 c 7.6,-49 46.1,-87.5 95.1,-95 l 244.6,-37.8"
         style="fill:#ffe266;fill-opacity:1;fill-rule:nonzero;stroke:none"
         id="path159" />
      <path
         d="m 7990.28,14472.6 -212.22,-32.8 c -42.52,-6.5 -75.88,-39.9 -82.44,-82.4 l -32.77,-212.2 -32.77,212.2 c -6.56,42.5 -39.93,75.9 -82.44,82.4 l -212.21,32.8 212.21,32.8 c 42.51,6.5 75.88,39.9 82.45,82.4 l 32.76,212.2 32.77,-212.2 c 6.56,-42.5 39.92,-75.9 82.44,-82.4 l 212.22,-32.8"
         style="fill:#ffe266;fill-opacity:1;fill-rule:nonzero;stroke:none"
         id="path161" />
      <path
         d="m 17150,11999.8 -229.9,-35.5 c -46,-7.1 -82.2,-43.2 -89.3,-89.3 l -35.5,-229.8 -35.5,229.8 c -7.1,46.1 -43.2,82.2 -89.3,89.3 l -229.9,35.5 229.9,35.5 c 46.1,7.2 82.2,43.3 89.3,89.3 l 35.5,229.9 35.5,-229.9 c 7.1,-46 43.3,-82.1 89.3,-89.3 l 229.9,-35.5"
         style="fill:#ffe266;fill-opacity:1;fill-rule:nonzero;stroke:none"
         id="path163" />
      <path
         d="m 27285.1,10448.4 -218.8,-33.8 c -43.9,-6.7 -78.3,-41.1 -85,-85 l -33.8,-218.8 -33.8,218.8 c -6.8,43.9 -41.2,78.3 -85,85 l -218.8,33.8 218.8,33.8 c 43.8,6.8 78.2,41.2 85,85 l 33.8,218.8 33.8,-218.8 c 6.7,-43.8 41.1,-78.2 85,-85 l 218.8,-33.8"
         style="fill:#ffe266;fill-opacity:1;fill-rule:nonzero;stroke:none"
         id="path165" />
      <path
         d="m 13946,12053.4 -180.2,-27.8 c -36.2,-5.6 -64.5,-33.9 -70.1,-70 l -27.8,-180.3 -27.8,180.3 c -5.6,36.1 -33.9,64.4 -70.1,70 l -180.2,27.8 180.2,27.9 c 36.2,5.6 64.5,33.9 70.1,70 l 27.8,180.3 27.8,-180.3 c 5.6,-36.1 33.9,-64.4 70.1,-70 l 180.2,-27.9"
         style="fill:#ffe266;fill-opacity:1;fill-rule:nonzero;stroke:none"
         id="path167" />
      <path
         d="m 14418,9823.2 -119.9,137.5 c -24,27.5 -63.1,36.3 -96.6,21.8 l -167.3,-72.8 137.5,119.8 c 27.6,24 36.4,63.1 21.8,96.6 l -72.8,167.3 119.9,-137.5 c 24,-27.6 63.1,-36.4 96.6,-21.8 l 167.2,72.8 -137.5,-119.8 c -27.5,-24.1 -36.3,-63.2 -21.7,-96.7 l 72.8,-167.2"
         style="fill:#ffe266;fill-opacity:1;fill-rule:nonzero;stroke:none"
         id="path169" />
      <path
         d="m 17835.1,9602.1 -208.7,-32.2 c -41.8,-6.5 -74.6,-39.3 -81,-81.1 l -32.3,-208.7 -32.2,208.7 c -6.4,41.8 -39.2,74.6 -81,81.1 l -208.7,32.2 208.7,32.2 c 41.8,6.5 74.6,39.3 81,81.1 l 32.2,208.6 32.3,-208.6 c 6.4,-41.8 39.2,-74.6 81,-81.1 l 208.7,-32.2"
         style="fill:#ffe266;fill-opacity:1;fill-rule:nonzero;stroke:none"
         id="path171" />
      <path
         d="m 11252.1,11366 -180.3,-27.9 c -36.1,-5.6 -64.4,-33.9 -70,-70 l -27.8,-180.3 -27.9,180.3 c -5.5,36.1 -33.9,64.4 -70,70 l -180.3,27.9 180.3,27.8 c 36.1,5.6 64.5,33.9 70,70 l 27.9,180.3 27.8,-180.3 c 5.6,-36.1 33.9,-64.4 70,-70 l 180.3,-27.8"
         style="fill:#ffe266;fill-opacity:1;fill-rule:nonzero;stroke:none"
         id="path173" />
      <path
         d="m 32673.3,14270.9 -213.3,-33 c -42.7,-6.6 -76.3,-40.1 -82.9,-82.9 l -32.9,-213.3 -33,213.3 c -6.6,42.8 -40.1,76.3 -82.8,82.9 l -213.4,33 213.4,32.9 c 42.7,6.6 76.2,40.1 82.8,82.9 l 33,213.3 32.9,-213.3 c 6.6,-42.8 40.2,-76.3 82.9,-82.9 l 213.3,-32.9"
         style="fill:#ffe266;fill-opacity:1;fill-rule:nonzero;stroke:none"
         id="path175" />
      <path
         d="m 28351.6,11560 h -6863.5 l 347.6,865.1 516.7,1284.9 4426.2,-46.6 1017.4,-1360.4 555.6,-743"
         style="fill:#ffffff;fill-opacity:1;fill-rule:nonzero;stroke:none"
         id="path177" />
      <path
         d="m 21713.9,11712.8 h 6333 l -1345.2,1798.6 -4246.5,44.8 -741.3,-1843.4 m 6942.5,-305.3 H 21262 l 987.8,2456.2 4606,-48.6 1800.6,-2407.6"
         style="fill:#371a45;fill-opacity:1;fill-rule:nonzero;stroke:none"
         id="path179" />
      <path
         d="m 27411.5,12052.9 c -211.8,-0.6 -423.5,3.5 -635.2,5.1 l -635,13 c -211.6,3.1 -423.6,12.3 -634.3,17.4 -211.3,4 -422.7,6.3 -634.2,6.4 -423,6.2 -846.2,5 -1269.4,8.5 l -634.9,5.6 c -211.7,4.1 -423.4,5.4 -635.1,11 211.5,11.4 423.1,17.4 634.7,25.7 l 634.9,15.4 c 423.4,8.4 846.8,9.1 1270.3,8.8 211.8,-2.4 423.7,-7 635.5,-13.3 212.3,-8.5 423.3,-16 634.8,-28.1 l 634,-33.8 c 211.3,-14 422.6,-25.4 633.9,-41.7"
         style="fill:#371a45;fill-opacity:1;fill-rule:nonzero;stroke:none"
         id="path181" />
      <path
         d="m 27128.5,12519.6 c -194.6,-2 -389.2,0.8 -583.8,1.1 l -583.9,9 c -389.3,6.5 -777.7,22.8 -1166.6,34.1 l -1166,39.5 c -194.4,6.4 -388.3,12.1 -582.7,7.8 -67.6,0.2 -135.2,0.1 -202.9,0 -126.8,-0.2 -253.8,-0.4 -380.9,1.5 388,24.4 777.6,52.9 1167.4,48.4 389.5,0.3 778.6,-10.2 1167.6,-22.3 388.9,-13.2 777.9,-31.5 1166.3,-51.6 l 582.7,-29.8 c 194.2,-12.7 388.5,-22.8 582.8,-37.7"
         style="fill:#371a45;fill-opacity:1;fill-rule:nonzero;stroke:none"
         id="path183" />
      <path
         d="m 26836.1,12922.2 c -178.9,1 -357.3,6.8 -535.8,10 l -534.9,17.9 -1070.1,32.4 -1069.9,37.7 c -178.3,6.8 -356.4,12.2 -534.7,14.3 -178.9,6.4 -357.6,10.3 -535.6,18.9 357.3,13.5 713.4,25.8 1071.4,24.5 357.3,0.1 714.3,-9.5 1071.3,-20.5 356.8,-13.2 713.6,-26.4 1070.1,-50 l 534.6,-38.7 c 177.9,-15.6 356,-28.6 533.6,-46.5"
         style="fill:#371a45;fill-opacity:1;fill-rule:nonzero;stroke:none"
         id="path185" />
      <path
         d="m 26574.3,13308.8 c -323.4,-33 -648.9,-20.2 -972.8,-15.4 -324,6.5 -647.8,17.5 -971.6,27.2 l -971.2,35.3 c -161.8,6.7 -323.7,12.6 -485.5,15.9 -160.8,5.6 -326.2,4.6 -484,15.3 l 483.9,21.4 c 162.3,4.2 324.5,4.7 486.7,5.1 324.4,0.3 648.5,-8.2 972.5,-18 324,-11.7 647.9,-24.7 971.5,-44.8 161.8,-10.1 323.3,-19.6 485.1,-27.2 161.7,-8.8 323.5,-18.9 485.4,-14.8"
         style="fill:#371a45;fill-opacity:1;fill-rule:nonzero;stroke:none"
         id="path187" />
      <path
         d="m 31783.4,12635 h -6863.6 l 864.8,2150 661.7,-6.9 3764.1,-40 1573,-2103.1"
         style="fill:#ffffff;fill-opacity:1;fill-rule:nonzero;stroke:none"
         id="path189" />
      <path
         d="m 20891.6,14876.4 -2468,-2227.6 c 0,0 2199.6,113.3 3220.5,110.4 832.4,-2.4 3616.7,-215.6 3616.7,-215.6 l 647.5,2241.3 -5016.7,91.5"
         style="fill:#ffffff;fill-opacity:1;fill-rule:nonzero;stroke:none"
         id="path191" />
      <path
         d="m 25299.2,12211.5 c 0,0 -2237.7,171.6 -3300.8,208.8 l 70.4,174.9 c 1086.9,-44 3156.3,-202 3180.4,-203.8 l 123.8,-9.5 29,100.5 h 2069.3 l 134.1,-179.4 h -2279.9 l -26.3,-91.5"
         style="fill:#b9afbe;fill-opacity:1;fill-rule:nonzero;stroke:none"
         id="path193" />
      <path
         d="m 27796,12303 h -190.6 l -134.1,179.4 h 190.6 L 27796,12303 m -5797.6,117.3 c -57.9,2 -112.3,3.7 -162.7,4.8 l 70.8,176.1 c 51.1,-1.7 105.4,-3.7 162.3,-6 l -70.4,-174.9"
         style="fill:#371a45;fill-opacity:1;fill-rule:nonzero;stroke:none"
         id="path195" />
      <path
         d="m 31783.4,12635 h -6863.6 l 864.8,2150 661.7,-6.9 3764.1,-40 1573,-2103.1"
         style="fill:#ffffff;fill-opacity:1;fill-rule:nonzero;stroke:none"
         id="path197" />
      <path
         d="m 25145.7,12787.7 h 6333 l -1345.2,1798.7 -4246.4,44.8 -741.4,-1843.5 m 6942.6,-305.3 h -7394.4 l 987.8,2456.2 4605.9,-48.5 1800.7,-2407.7"
         style="fill:#371a45;fill-opacity:1;fill-rule:nonzero;stroke:none"
         id="path199" />
      <path
         d="m 30843.3,13127.9 c -211.8,-0.7 -423.5,3.5 -635.2,5.1 l -635,12.9 c -211.5,3.1 -423.5,12.4 -634.3,17.4 -211.3,4.1 -422.7,6.4 -634.2,6.5 -423,6.2 -846.2,4.9 -1269.4,8.4 l -634.9,5.6 c -211.7,4.2 -423.3,5.5 -635.1,11.1 211.5,11.4 423.2,17.4 634.7,25.7 l 635,15.3 c 423.3,8.5 846.7,9.1 1270.3,8.8 211.7,-2.4 423.6,-7 635.5,-13.3 212.3,-8.4 423.3,-16 634.7,-28.1 l 634,-33.8 c 211.3,-13.9 422.7,-25.4 633.9,-41.6"
         style="fill:#371a45;fill-opacity:1;fill-rule:nonzero;stroke:none"
         id="path201" />
      <path
         d="m 30560.3,13594.6 c -194.6,-2 -389.2,0.8 -583.8,1.1 l -583.9,8.9 c -389.3,6.5 -777.7,22.8 -1166.6,34.1 l -1166,39.5 c -194.4,6.4 -388.2,12.2 -582.7,7.8 -67.9,0.2 -135.9,0.1 -203.8,0 -126.6,-0.2 -253.2,-0.3 -380,1.5 388.1,24.4 777.7,53 1167.4,48.4 389.5,0.3 778.6,-10.2 1167.6,-22.2 389,-13.2 777.9,-31.5 1166.3,-51.7 l 582.8,-29.8 c 194.2,-12.6 388.5,-22.7 582.7,-37.6"
         style="fill:#371a45;fill-opacity:1;fill-rule:nonzero;stroke:none"
         id="path203" />
      <path
         d="m 30268,13947.1 c -179,1 -357.4,6.8 -535.9,10.1 l -534.9,17.8 -1070.1,32.4 -1069.8,37.8 c -178.3,6.7 -356.4,12.1 -534.8,14.2 -178.9,6.4 -357.5,10.3 -535.6,18.9 357.3,13.5 713.5,25.8 1071.4,24.5 357.4,0.2 714.4,-9.5 1071.3,-20.5 356.9,-13.1 713.6,-26.4 1070.2,-50 l 534.5,-38.6 c 178,-15.7 356.1,-28.7 533.7,-46.6"
         style="fill:#371a45;fill-opacity:1;fill-rule:nonzero;stroke:none"
         id="path205" />
      <path
         d="m 30006.1,14283.8 c -323.4,-33.1 -648.9,-20.3 -972.8,-15.4 -324,6.4 -647.8,17.4 -971.6,27.2 l -971.2,35.3 c -161.8,6.6 -323.7,12.5 -485.4,15.8 -160.8,5.6 -326.3,4.7 -484,15.3 l 483.8,21.4 c 162.4,4.3 324.6,4.8 486.8,5.1 324.3,0.3 648.4,-8.2 972.5,-18 323.9,-11.7 647.9,-24.6 971.5,-44.8 161.7,-10.1 323.3,-19.6 485,-27.2 161.7,-8.8 323.5,-18.8 485.4,-14.7"
         style="fill:#371a45;fill-opacity:1;fill-rule:nonzero;stroke:none"
         id="path207" />
      <path
         d="m 4954.27,15363.8 940.35,17 940.37,12.9 1880.71,25.3 3761.4,31.5 c 1253.8,12.7 2507.7,13.6 3761.5,20.1 l 3761.4,6.2 3761.4,-6 c 1253.8,-6.7 2507.7,-7.4 3761.5,-20.2 l 3761.4,-31.5 1880.7,-25.4 940.4,-12.8 940.3,-17.1 c 74.6,-1.3 134,-62.9 132.6,-137.4 -1.3,-72.9 -60.3,-131.2 -132.6,-132.6 l -940.3,-17.1 -940.4,-12.8 -1880.7,-25.4 -3761.4,-31.6 c -1253.8,-12.7 -2507.7,-13.4 -3761.5,-20.1 l -3761.4,-6 -3761.4,6.2 c -1253.8,6.5 -2507.7,7.4 -3761.5,20.1 l -3761.4,31.5 -1880.71,25.4 -940.37,12.8 -940.35,17 c -74.58,1.3 -133.93,62.9 -132.59,137.4 1.32,72.9 60.35,131.2 132.59,132.6"
         style="fill:#371a45;fill-opacity:1;fill-rule:nonzero;stroke:none"
         id="path209" />
      <path
         d="m 17669.8,12975.2 2159.2,2007.2 c 8.6,8.1 13.5,19.3 13.5,31.1 v 360.7 c 0,24.4 -20.6,43.8 -45,42.3 L 12891,14995 9685.62,12975.2 h 7984.18"
         style="fill:#3e8dff;fill-opacity:1;fill-rule:nonzero;stroke:none"
         id="path211" />
      <path
         d="m 17661.8,13176.1 -57,231.2 2074.5,1644.4 -2017.5,-1875.6"
         style="fill:#4c6aca;fill-opacity:1;fill-rule:nonzero;stroke:none"
         id="path213" />
      <path
         d="m 10214.2,13127.8 h 7395.7 l 2080,1933.7 v 195.5 l -6750.6,-411.9 -2725.1,-1717.3 m 7515.7,-305.3 H 9157.07 l 3685.63,2322.5 6945.5,423.9 c 53.8,2.9 106.5,-16 145.6,-52.7 39,-36.7 61.4,-88.5 61.4,-142.1 v -360.6 c 0,-53.8 -22.6,-105.8 -62,-142.6 l -2203.3,-2048.4"
         style="fill:#371a45;fill-opacity:1;fill-rule:nonzero;stroke:none"
         id="path215" />
      <path
         d="m 17669.8,13823.6 2172.7,1595.6 H 12891 L 9685.62,13823.6 h 7984.18"
         style="fill:#3e8dff;fill-opacity:1;fill-rule:nonzero;stroke:none"
         id="path217" />
      <path
         d="m 17109.4,14025.1 1413.4,1038 h -4522.1 l -2085.1,-1038 h 5193.8"
         style="fill:#ffffff;fill-opacity:1;fill-rule:nonzero;stroke:none"
         id="path219" />
      <path
         d="m 10110.9,13923.6 h 7526.2 l 1900.3,1395.6 h -6622.9 l -2803.6,-1395.6 m 7591.7,-200 H 9260.34 l 3607.16,1795.6 h 6845.6 c 61.7,0 116.1,-39.4 135.3,-98 19.2,-58.7 -1.3,-122.6 -51,-159.2 l -2094.8,-1538.4"
         style="fill:#371a45;fill-opacity:1;fill-rule:nonzero;stroke:none"
         id="path221" />
      <path
         d="M 17464,12880.8 H 8381.46 c -58.77,0 -112.58,24 -151.51,64.1 -25.56,25.9 -44.64,59.5 -54.18,97.3 l -1527.56,6199.6 c -66.02,267.5 136.22,525.8 411.75,525.8 h 8479.24 c 279.4,0 524,-182 606.8,-445.7 4.2,-12.6 8,-25.6 11,-38.5 l 1512.7,-6139.7 c 33.2,-133.6 -68.3,-262.9 -205.7,-262.9"
         style="fill:#3e8dff;fill-opacity:1;fill-rule:nonzero;stroke:none"
         id="path223" />
      <path
         d="M 17464,12880.8 H 8634.07 l -12.58,51 c 91.06,-1.7 189.54,-2.8 294.66,-2.8 1562.45,0 4579.75,236 6145.65,1925.4 1177.8,1270.8 1202.3,3258.2 1085.9,4450.4 1.2,-0.1 2.4,-0.3 3.6,-0.5 -1.1,3.9 -2.2,7.7 -3.3,11.5 3.4,-10.7 6.5,-21.5 9,-32.4 l 1512.7,-6139.7 c 4.3,-17.2 6.3,-34.4 6.4,-51.2 0.1,-113.6 -92.4,-211.7 -212.1,-211.7 m -9083.82,0 c -0.14,0 -0.27,0 -0.41,0 0.14,0 0.28,0 0.41,0 m -1.26,0 c -0.17,0 -0.35,0 -0.52,0 0.18,0 0.35,0 0.52,0 m -1.26,0 c -0.19,0 -0.38,0 -0.56,0 0.18,0 0.38,0 0.56,0 m -1.22,0 c -0.22,0 -0.44,0 -0.65,0.1 0.22,-0.1 0.43,-0.1 0.65,-0.1 m -1.06,0.1 c -0.98,0 -1.96,0 -2.94,0.1 0.98,-0.1 1.96,-0.1 2.94,-0.1 m -3.09,0.1 c -0.36,0 -0.72,0 -1.08,0 0.36,0 0.72,0 1.08,0 m -1.09,0 c -19.67,1 -38.69,4.6 -56.71,10.6 18.03,-6 37.07,-9.6 56.71,-10.6 m -56.72,10.6 c -0.23,0.1 -0.45,0.2 -0.68,0.3 0.23,-0.1 0.45,-0.2 0.68,-0.3 m -1.38,0.5 c -0.09,0 -0.17,0.1 -0.25,0.1 0.09,0 0.16,-0.1 0.25,-0.1"
         style="fill:#4c6aca;fill-opacity:1;fill-rule:nonzero;stroke:none"
         id="path225" />
      <path
         d="m 8634.07,12880.8 h -252.61 c -0.43,0 -0.85,0 -1.28,0 0.43,0 0.85,0 1.28,0 h 252.61 m -254.3,0 c -0.28,0 -0.57,0 -0.85,0 0.28,0 0.57,0 0.85,0 m -1.37,0 c -0.25,0 -0.49,0 -0.74,0 0.25,0 0.49,0 0.74,0 m -1.3,0 c -0.22,0 -0.44,0 -0.66,0 0.22,0 0.44,0 0.66,0 m -1.31,0.1 c -0.14,0 -0.27,0 -0.41,0 0.14,0 0.27,0 0.41,0 m -3.35,0.1 c -0.04,0 -0.1,0 -0.15,0 0.05,0 0.11,0 0.15,0 m -1.23,0 h -0.01 c 0,0 0,0 0.01,0 m -56.72,10.6 h -0.01 0.01 m -0.69,0.3 c -0.23,0 -0.47,0.1 -0.7,0.2 0.23,-0.1 0.47,-0.2 0.7,-0.2 m -0.95,0.3 c -66.84,22.9 -119.5,78.5 -137.08,150 l -346.33,1405.5 346.33,-1405.5 c 9.54,-37.8 28.62,-71.4 54.18,-97.3 v 0 0 c 23.09,-23.8 51.41,-41.9 82.9,-52.7"
         style="fill:#7d6a86;fill-opacity:1;fill-rule:nonzero;stroke:none"
         id="path227" />
      <path
         d="m 16148,19315.8 c -0.7,2.1 -1.3,4.1 -2,6.1 -78.3,249.3 -301.2,425.6 -561.3,444.1 262.3,-18.7 486.9,-197.6 563.3,-450.2 m -563.3,450.2 c -0.5,0 -1,0.1 -1.5,0.1 0.5,0 1,-0.1 1.5,-0.1 m -1.7,0.1 c -0.4,0 -0.9,0.1 -1.4,0.1 0.5,0 1,-0.1 1.4,-0.1 m -1.6,0.1 c -0.5,0.1 -0.9,0.1 -1.4,0.1 0.5,0 0.9,-0.1 1.4,-0.1 m -1.7,0.1 c -0.4,0.1 -0.8,0.1 -1.3,0.1 0.5,0 0.9,0 1.3,-0.1 m -1.6,0.1 c -0.4,0.1 -0.9,0.1 -1.3,0.1 0.4,0 0.9,0 1.3,-0.1 m -1.7,0.1 c -0.4,0.1 -0.8,0.1 -1.2,0.1 0.4,0 0.8,0 1.2,-0.1 m -1.6,0.1 c -0.4,0 -0.8,0.1 -1.2,0.1 0.4,0 0.8,-0.1 1.2,-0.1 m -1.7,0.1 c -0.3,0 -0.7,0.1 -1.1,0.1 0.4,0 0.8,-0.1 1.1,-0.1 m -1.6,0.1 c -0.4,0 -0.8,0 -1.1,0.1 0.4,-0.1 0.7,-0.1 1.1,-0.1 m -1.7,0.1 c -0.3,0 -0.7,0 -1.1,0 0.4,0 0.8,0 1.1,0 m -1.6,0.1 c -0.3,0 -0.7,0 -1.1,0 0.4,0 0.7,0 1.1,0 m -1.7,0 c -0.3,0 -0.7,0.1 -1,0.1 0.3,0 0.7,-0.1 1,-0.1 m -1.6,0.1 c -0.3,0 -0.7,0 -1,0 0.3,0 0.7,0 1,0 m -1.7,0.1 c -0.3,0 -0.6,0 -0.9,0 0.3,0 0.6,0 0.9,0 m -1.7,0 c -0.3,0 -0.6,0 -0.9,0.1 0.3,-0.1 0.6,-0.1 0.9,-0.1 m -1.6,0.1 c -0.3,0 -0.6,0 -0.9,0 0.3,0 0.6,0 0.9,0 m -1.6,0 c -0.3,0 -0.6,0 -1,0.1 0.4,-0.1 0.7,-0.1 1,-0.1 m -1.7,0.1 c -0.3,0 -0.6,0 -0.9,0 0.3,0 0.6,0 0.9,0 m -1.7,0 c -0.2,0 -0.6,0 -0.8,0 0.3,0 0.6,0 0.8,0 m -1.6,0.1 c -0.3,0 -0.6,0 -0.9,0 0.3,0 0.6,0 0.9,0 m -1.6,0 c -0.3,0 -0.6,0 -0.9,0 0.3,0 0.6,0 0.9,0 m -1.7,0 c -0.3,0 -0.6,0 -0.9,0 0.3,0 0.6,0 0.9,0 m -1.6,0 c -0.3,0 -0.6,0.1 -0.9,0.1 0.3,0 0.6,-0.1 0.9,-0.1 m -1.8,0.1 c -0.2,0 -0.5,0 -0.8,0 0.3,0 0.6,0 0.8,0 m -1.6,0 c -0.3,0 -0.6,0 -0.8,0 0.2,0 0.5,0 0.8,0 m -1.7,0 c -0.3,0 -0.5,0 -0.8,0 0.3,0 0.5,0 0.8,0 m -2.1,0 c -0.1,0 -0.2,0 -0.3,0 0.1,0 0.2,0 0.3,0"
         style="fill:#def4ff;fill-opacity:1;fill-rule:nonzero;stroke:none"
         id="path229" />
      <path
         d="m 8621.49,12931.8 c -152.87,3 -284.97,7.9 -391.54,13.1 v 0 c -25.56,25.9 -44.64,59.5 -54.18,97.3 l -346.33,1405.5 -12.72,51.7 -1168.51,4742.4 c -8.51,34.4 -12.57,68.8 -12.58,102.4 -0.08,227.4 184.32,423.4 424.33,423.4 h 8479.24 c 0.6,0 1.1,0 1.7,0 0.1,0 0.2,0 0.3,0 0.5,0 0.9,0 1.3,0 0.3,0 0.5,0 0.8,0 0.3,0 0.6,0 0.9,0 0.2,0 0.5,0 0.8,0 0.3,0 0.5,0 0.8,0 0.3,0 0.6,0 0.8,0 0.3,0 0.6,0 0.9,0 0.3,0 0.6,-0.1 0.9,-0.1 0.2,0 0.5,0 0.7,0 0.3,0 0.6,0 0.9,0 0.3,0 0.5,0 0.8,0 0.3,0 0.6,0 0.9,0 0.2,0 0.5,0 0.7,0 0.3,0 0.6,0 0.9,0 0.2,-0.1 0.5,-0.1 0.8,-0.1 0.2,0 0.6,0 0.8,0 0.3,0 0.6,0 0.8,0 0.3,0 0.6,0 0.9,0 0.2,0 0.5,0 0.7,0 0.4,-0.1 0.7,-0.1 1,-0.1 0.2,0 0.4,0 0.7,0 0.3,0 0.6,0 0.9,0 0.2,0 0.5,0 0.7,0 0.3,-0.1 0.6,-0.1 0.9,-0.1 0.3,0 0.5,0 0.8,0 0.3,0 0.6,0 0.9,0 0.2,0 0.4,-0.1 0.7,-0.1 0.3,0 0.7,0 1,0 0.2,0 0.4,0 0.6,0 0.3,0 0.7,-0.1 1,-0.1 0.2,0 0.4,0 0.6,0 0.4,0 0.8,0 1.1,0 0.2,-0.1 0.4,-0.1 0.5,-0.1 0.4,0 0.8,0 1.1,0 0.2,0 0.4,0 0.6,0 0.3,-0.1 0.7,-0.1 1.1,-0.1 0.1,0 0.3,0 0.5,0 0.4,0 0.8,-0.1 1.1,-0.1 0.2,0 0.4,0 0.5,0 0.4,0 0.8,-0.1 1.2,-0.1 0.1,0 0.3,0 0.4,0 0.4,0 0.8,0 1.2,-0.1 0.2,0 0.3,0 0.4,0 0.4,0 0.9,0 1.3,-0.1 0.1,0 0.2,0 0.3,0 0.5,0 0.9,0 1.3,-0.1 0.1,0 0.2,0 0.3,0 0.5,0 0.9,0 1.4,-0.1 0.1,0 0.1,0 0.2,0 0.5,0 1,-0.1 1.4,-0.1 0.1,0 0.2,0 0.2,0 0.5,0 1,-0.1 1.5,-0.1 v 0 c 260.1,-18.5 483,-194.8 561.3,-444.1 0.7,-2 1.3,-4 2,-6.1 v 0 c -0.7,2.1 -1.3,4.1 -2,6.1 0.5,-5.7 1.1,-11.4 1.7,-17.1 -25.5,3.1 -51.1,4.9 -77.3,4.9 H 7311.82 c -133.18,0 -231.27,-124.8 -199.2,-254.2 l 1508.87,-6123.7"
         style="fill:#81b5ff;fill-opacity:1;fill-rule:nonzero;stroke:none"
         id="path231" />
      <path
         d="m 8634.07,12880.8 h -252.61 c -0.43,0 -0.85,0 -1.28,0 -0.13,0 -0.27,0 -0.41,0 -0.28,0 -0.57,0 -0.85,0 -0.17,0 -0.34,0 -0.52,0 -0.25,0 -0.49,0 -0.74,0 -0.18,0 -0.38,0 -0.56,0 -0.22,0 -0.44,0 -0.66,0 -0.22,0 -0.43,0 -0.65,0.1 -0.14,0 -0.27,0 -0.41,0 -0.98,0 -1.96,0 -2.94,0.1 -0.04,0 -0.1,0 -0.15,0 -0.36,0 -0.72,0 -1.08,0 -0.01,0 -0.01,0 -0.01,0 -19.64,1 -38.68,4.6 -56.71,10.6 h -0.01 c -0.23,0.1 -0.45,0.2 -0.68,0.3 -0.23,0 -0.47,0.1 -0.7,0.2 -0.09,0 -0.16,0.1 -0.25,0.1 -31.49,10.8 -59.81,28.9 -82.9,52.7 106.57,-5.2 238.67,-10.1 391.54,-13.1 l 12.58,-51 m 7517.23,6423.5 c -1.2,0.2 -2.4,0.4 -3.6,0.5 -0.6,5.7 -1.2,11.4 -1.7,17.1 0.7,-2 1.3,-4 2,-6.1 1.1,-3.8 2.2,-7.6 3.3,-11.5"
         style="fill:#8a9edc;fill-opacity:1;fill-rule:nonzero;stroke:none"
         id="path233" />
      <path
         d="m 7059.95,19615 c -84.03,0 -161.96,-38 -213.77,-104.1 -51.85,-66.1 -70.02,-150.9 -49.95,-232.4 l 1527.54,-6199.7 c 6.59,-26.6 30.32,-45.2 57.76,-45.2 h 9082.37 c 25.2,0 40.1,14.2 46.8,22.7 6.7,8.6 17,26.5 11,51 L 16008.9,19247 c -53.4,216.7 -246.6,368 -469.7,368 z M 17463.9,12728.3 H 8381.53 c -168.31,0 -313.91,114.1 -354.15,277.5 l -1527.54,6199.6 c -42.72,173.3 -4.05,353.3 106.01,493.8 110.11,140.5 275.63,221.1 454.1,221.1 h 8479.25 c 364,0 679,-246.8 766.1,-600.2 l 1512.8,-6139.8 c 27,-109.6 2.5,-223.4 -67.1,-312.3 -69.6,-88.8 -174.3,-139.7 -287.1,-139.7"
         style="fill:#371a45;fill-opacity:1;fill-rule:nonzero;stroke:none"
         id="path235" />
      <path
         d="m 25871.4,12787.7 h -381.2 l 532.2,1842 379.9,-4 -73.6,-254.5 -207.6,-9.2 c 66.4,-4.5 134.2,-6.9 202.5,-8.6 l -76.7,-265.6 c -86.6,-3 -173.3,-6.2 -260,-9.5 84.7,-4.1 169.5,-7.1 254.4,-9.8 l -105.6,-365.6 c -80.8,-5.1 -161.5,-10.3 -242.2,-15.4 79.2,-1.1 158.3,-1.5 237.3,-1.6 l -138.8,-480.5 c -75.6,-3.1 -151.2,-6.5 -226.8,-10.5 74.2,-2 148.3,-3.4 222.5,-4.6 l -116.3,-402.6"
         style="fill:#b9afbe;fill-opacity:1;fill-rule:nonzero;stroke:none"
         id="path237" />
      <path
         d="m 25827.3,12635 h -381.2 l 44.1,152.7 h 381.2 l -44.1,-152.7 m 575,1990.7 -379.9,4 44,152.4 379.9,-4 -44,-152.4"
         style="fill:#371a45;fill-opacity:1;fill-rule:nonzero;stroke:none"
         id="path239" />
      <path
         d="m 25987.7,13190.3 c -74.2,1.2 -148.3,2.6 -222.5,4.6 75.6,4 151.2,7.4 226.8,10.5 l -4.3,-15.1"
         style="fill:#371a45;fill-opacity:1;fill-rule:nonzero;stroke:none"
         id="path241" />
      <path
         d="m 26130.8,13685.9 c -79,0.1 -158.1,0.5 -237.3,1.6 80.7,5.1 161.4,10.3 242.2,15.4 l -4.9,-17"
         style="fill:#371a45;fill-opacity:1;fill-rule:nonzero;stroke:none"
         id="path243" />
      <path
         d="m 26241.3,14068.5 c -84.9,2.7 -169.7,5.7 -254.4,9.8 86.7,3.3 173.4,6.5 260,9.5 l -5.6,-19.3"
         style="fill:#371a45;fill-opacity:1;fill-rule:nonzero;stroke:none"
         id="path245" />
      <path
         d="m 26323.6,14353.4 c -68.3,1.7 -136.1,4.1 -202.5,8.6 l 207.6,9.2 -5.1,-17.8"
         style="fill:#371a45;fill-opacity:1;fill-rule:nonzero;stroke:none"
         id="path247" />
      <path
         d="m 20891.6,14876.4 -2468,-2227.6 c 0,0 2199.6,113.3 3220.5,110.4 832.4,-2.4 3616.7,-215.6 3616.7,-215.6 l 647.5,2241.3 -5016.7,91.5"
         style="fill:#ffffff;fill-opacity:1;fill-rule:nonzero;stroke:none"
         id="path249" />
      <path
         d="m 21605.4,12911.8 c 13.2,0 26.2,0 39.1,0 737.9,-2.1 2948.8,-164.9 3504.1,-206.6 l 557.8,1930.7 -4757.3,86.8 -2105.7,-1900.6 c 681.8,32 2014.3,89.7 2762,89.7 m 3767.6,-529.9 -123.8,9.5 c -27.8,2.1 -2788.3,212.8 -3605.6,215.1 -1003.5,2.1 -3190.2,-109 -3212.1,-110.1 l -429.1,-22.1 2831.7,2555.8 5276.1,-96.2 -737.2,-2552"
         style="fill:#371a45;fill-opacity:1;fill-rule:nonzero;stroke:none"
         id="path251" />
      <path
         d="m 22217.6,14845.7 c 0.9,-339.2 -65.3,-672.7 -192.3,-966.8 l -52.8,-121.8 c -60.4,-139.8 -211.9,-139.8 -272.3,0 l -54.4,126.2 c -125.7,291 -192,621.4 -192,957.6 v 3468.2 c 0,119.2 168.7,216 377,216 208,0 376.6,-96.8 376.6,-216 0,-5.7 -0.3,-11.4 -1.3,-17.1 l 11.5,-3446.3"
         style="fill:#371a45;fill-opacity:1;fill-rule:nonzero;stroke:none"
         id="path253" />
      <path
         d="m 24858.3,13180.4 c -209.4,3.4 -418.4,11.5 -627.5,17.2 l -626.7,25 c -417.5,20.6 -835.6,33.7 -1253.6,45.9 -417.8,17.1 -835.8,29.7 -1253.6,42.8 -209.1,8 -417.2,9.3 -626.8,13.1 -209.3,6.3 -418.6,9.9 -627.6,18.4 418.5,13.7 836,26.6 1255.4,26.2 418.7,-1.2 836.9,-14.4 1255.2,-25.6 l 627.1,-26.6 c 209,-8.6 417.9,-20.3 626.6,-36.8 l 626.2,-45.9 c 208.5,-18 417.1,-33.5 625.3,-53.7"
         style="fill:#371a45;fill-opacity:1;fill-rule:nonzero;stroke:none"
         id="path255" />
      <path
         d="m 25080,13549.8 c -263.9,3 -527.3,10.7 -790.3,23.2 -131.6,5.3 -263,13.2 -394.5,19.9 -131.5,7.4 -262.7,16.9 -394,22.2 l -788.4,38.6 c -263,11.4 -525.7,26.6 -789.3,33.8 263,21.9 527.2,26.4 790.8,24.7 263.8,-1.3 527.2,-9.8 790.7,-22.3 263.6,-14.3 525.9,-36.1 788.5,-58.7 262.6,-22.4 524.8,-49.5 786.5,-81.4"
         style="fill:#371a45;fill-opacity:1;fill-rule:nonzero;stroke:none"
         id="path257" />
      <path
         d="m 25750.8,21667.7 c 0,0 699.2,-1538.1 817.1,-3284 120,-1778 -53.9,-4305.6 -4194.3,-3962.9 -1451.4,120.2 -1380.9,736.9 -1434.8,1464.5 -66.8,901.5 36.2,1936.7 1089.6,1975.4 1903.5,69.8 2472,484.8 2742.5,1652.1 l 979.9,2154.9"
         style="fill:#ffffff;fill-opacity:1;fill-rule:nonzero;stroke:none"
         id="path259" />
      <path
         d="m 24541.4,14564.9 v 0 c -0.1,0 0.1,0 0,0 m 1.2,0.3 c 93.6,26.4 183,55.4 268.5,87.1 h 0.1 c -85.4,-31.6 -175.1,-60.7 -268.6,-87.1"
         style="fill:#b9afbe;fill-opacity:1;fill-rule:nonzero;stroke:none"
         id="path261" />
      <path
         d="m 26361.3,16190.1 c 74.6,205.5 127.2,419.3 163.2,636.2 v 0 c -35.9,-217 -88.4,-430.6 -163,-636.1 0,0 -0.1,0 -0.2,-0.1"
         style="fill:#b9afbe;fill-opacity:1;fill-rule:nonzero;stroke:none"
         id="path263" />
      <path
         d="m 26103.5,15661 c 106.2,167.2 190.9,344.7 257.8,529.1 0.1,0.1 0.2,0.1 0.2,0.1 -66.9,-184.3 -151.5,-362 -257.6,-529.1 -0.1,0 -0.2,0 -0.4,-0.1"
         style="fill:#8c7b94;fill-opacity:1;fill-rule:nonzero;stroke:none"
         id="path265" />
      <path
         d="m 25962.5,15461.6 c -0.1,0 -0.2,0 -0.3,0 50.9,64.5 98,131.1 141.3,199.4 0.2,0.1 0.3,0.1 0.4,0.1 -43.5,-68.4 -90.5,-134.9 -141.4,-199.5 m 562,1364.7 c 2,12.6 4.1,25.4 6.1,38.1 -2,-12.7 -4,-25.5 -6.1,-38.1 v 0"
         style="fill:#371a45;fill-opacity:1;fill-rule:nonzero;stroke:none"
         id="path267" />
      <path
         d="m 25400.2,14946.8 h -0.3 c 23.4,15.5 46.3,31.1 68.8,47.1 0.1,0 0.2,0 0.3,0 -22.5,-16 -45.4,-31.6 -68.8,-47.1"
         style="fill:#371a45;fill-opacity:1;fill-rule:nonzero;stroke:none"
         id="path269" />
      <path
         d="m 25468.7,14993.9 c 195.2,138.3 358.1,295.8 493.5,467.7 0.1,0 0.2,0 0.3,0 -135.4,-171.8 -298.3,-329.4 -493.5,-467.7 -0.1,0 -0.2,0 -0.3,0"
         style="fill:#371a45;fill-opacity:1;fill-rule:nonzero;stroke:none"
         id="path271" />
      <path
         d="m 20966.2,15496.5 c -0.2,2.6 -0.5,5.2 -0.7,7.8 v 0 c 0.3,-2.6 0.5,-5.2 0.8,-7.8 -0.1,0 0,0 -0.1,0"
         style="fill:#b9afbe;fill-opacity:1;fill-rule:nonzero;stroke:none"
         id="path273" />
      <path
         d="m 20968.3,15475.2 v 0 c -0.7,7.1 -1.4,14.2 -2.1,21.3 0.1,0 0,0 0.1,0 0.6,-7.1 1.3,-14.2 2,-21.3"
         style="fill:#8c7b94;fill-opacity:1;fill-rule:nonzero;stroke:none"
         id="path275" />
      <path
         d="m 20965.5,15504.3 v 0 c -5.4,58 -9.5,117.3 -13.3,177.7 3.8,-60.4 8,-119.7 13.3,-177.7"
         style="fill:#371a45;fill-opacity:1;fill-rule:nonzero;stroke:none"
         id="path277" />
      <path
         d="m 21076.3,15025.7 h -0.1 c -63.3,135.2 -91.4,286.9 -107.9,449.5 v 0 c 16.6,-162.6 44.7,-314.3 108,-449.5"
         style="fill:#371a45;fill-opacity:1;fill-rule:nonzero;stroke:none"
         id="path279" />
      <path
         d="m 20925.6,16127.2 c 0,0.2 0,0.5 0,0.7 0,-0.2 0,-0.4 0,-0.7"
         style="fill:#2e568d;fill-opacity:1;fill-rule:nonzero;stroke:none"
         id="path281" />
      <path
         d="m 20925,16145.6 v 0 c -1.9,65.7 -2.6,131.6 -1.8,197.1 -0.8,-65.5 -0.1,-131.4 1.8,-197.1"
         style="fill:#2976b4;fill-opacity:1;fill-rule:nonzero;stroke:none"
         id="path283" />
      <path
         d="m 20925.6,16128.8 c -0.2,5.7 -0.4,11.2 -0.6,16.8 v 0 c 0.2,-5.6 0.4,-11.2 0.6,-16.8"
         style="fill:#2e568d;fill-opacity:1;fill-rule:nonzero;stroke:none"
         id="path285" />
      <path
         d="m 20923.2,16344 c 0,0.4 0,1 0,1.4 0,-0.4 0,-1 0,-1.4"
         style="fill:#2976b4;fill-opacity:1;fill-rule:nonzero;stroke:none"
         id="path287" />
      <path
         d="m 24811.2,14652.3 h -0.1 c 221.8,82 417.2,181.2 588.8,294.5 h 0.3 c -171.7,-113.3 -367,-212.5 -589,-294.5 m -3507.2,86.5 c -105.7,83.5 -177.8,180 -227.8,286.9 h 0.1 c 50,-106.9 122,-203.4 227.7,-286.9"
         style="fill:#371a45;fill-opacity:1;fill-rule:nonzero;stroke:none"
         id="path289" />
      <path
         d="m 23100.1,14389.4 c -227.4,0 -469.2,10.2 -726.4,31.4 -537.3,44.5 -866,157 -1069.7,318 -105.7,83.5 -177.7,180 -227.7,286.9 -63.3,135.2 -91.4,286.9 -108,449.5 -0.7,7.1 -1.4,14.2 -2,21.3 -0.3,2.6 -0.5,5.2 -0.8,7.8 -5.3,58 -9.5,117.3 -13.3,177.7 -4.3,66.6 -8.3,134.5 -13.4,203.4 -5.9,79.9 -10.5,160.7 -13.2,241.8 0,0.3 0,0.5 0,0.7 0,0.3 0,0.6 0,0.9 -0.2,5.6 -0.4,11.2 -0.6,16.8 -1.9,65.7 -2.6,131.6 -1.8,197.1 0,0.5 0,0.9 0,1.3 0,0.4 0,1 0,1.4 4.7,347.1 52.7,686 186.6,955 1.9,-107.2 7.2,-214.4 15.3,-319.8 53.8,-727.3 -16.8,-1344.3 1434.4,-1464.2 257.4,-21.3 499.6,-31.5 727.2,-31.5 2086,0 2958.6,858.7 3296.8,1906.7 -8.9,-175.7 -25.6,-352.4 -52.9,-527.2 -2,-12.7 -4.1,-25.5 -6.1,-38.1 -36,-216.9 -88.6,-430.7 -163.2,-636.2 -66.9,-184.4 -151.6,-361.9 -257.8,-529.1 -43.3,-68.3 -90.4,-134.9 -141.3,-199.4 -135.4,-171.9 -298.3,-329.4 -493.5,-467.7 -22.5,-16 -45.4,-31.6 -68.8,-47.1 -171.6,-113.3 -367,-212.5 -588.8,-294.5 -85.5,-31.7 -174.9,-60.7 -268.5,-87.1 -0.4,-0.1 -0.8,-0.2 -1.2,-0.3 v 0 c -400.4,-112.6 -876.5,-175.5 -1441.3,-175.5"
         style="fill:#b9afbe;fill-opacity:1;fill-rule:nonzero;stroke:none"
         id="path291" />
      <path
         d="m 24313.5,18721.8 c 31.5,65.8 68.6,126.5 104.9,189.6 35.9,63 75.4,125.8 112.1,191.9 74.5,131.7 142.6,271.8 223,413.5 5.1,9 16.4,12.2 25.4,7.1 5.7,-3.1 9,-9.1 9.4,-15.1 9.2,-163.9 -8.4,-326.5 -47.8,-487.4 -20.4,-80.1 -45.1,-160.7 -82.3,-236.5 -36.9,-75.7 -82,-149.2 -142.7,-210.4 -49.2,-49.5 -129.2,-49.8 -178.8,-0.7 -39.2,38.9 -47.6,97.1 -25.1,144.2 l 1.9,3.8"
         style="fill:#371a45;fill-opacity:1;fill-rule:nonzero;stroke:none"
         id="path293" />
      <path
         d="m 23090.5,14237.2 c -232.5,0 -475.6,10.5 -729.5,31.5 -1480.8,122.6 -1523.3,800.1 -1564.4,1455.3 -3.2,49.4 -6.3,99.4 -10,150 -62.3,841.8 58.3,1419.7 368.9,1766.7 209.2,233.7 501,359.1 867.2,372.5 1211.1,44.5 1849.8,231 2204.4,643.9 55,64 151.4,71.2 215.2,16.3 64,-54.9 71.3,-151.3 16.3,-215.2 -416.4,-484.8 -1118.8,-702.1 -2424.6,-750.1 -284.2,-10.4 -497.1,-99 -651.1,-271 -252.2,-281.9 -347.8,-785.8 -291.8,-1540.5 3.8,-51.8 7,-103 10.2,-153.5 40.3,-643.9 67,-1069.3 1284.9,-1170.2 1519.7,-125.7 2620.9,136.1 3273,778.3 798.2,786.2 823.5,2028.1 756.4,3022.2 -114.7,1698.6 -796.9,3216 -803.7,3231.2 -34.9,76.7 -1,167.2 75.7,202.1 76.8,34.9 167.3,1 202.2,-75.8 29,-63.8 712,-1583.6 830.4,-3336.9 71.5,-1059.2 39.9,-2387 -846.8,-3260.3 -605.1,-596.1 -1539.4,-896.5 -2782.9,-896.5"
         style="fill:#371a45;fill-opacity:1;fill-rule:nonzero;stroke:none"
         id="path295" />
      <path
         d="m 26000.3,15358.5 c -2.2,0 -4.5,0 -6.7,0.1 -84.2,3.6 -149.6,74.9 -145.9,159.1 108.6,2510.1 -1439.9,2917.3 -1505.9,2933.4 -81.7,20 -132.1,102.3 -112.6,184 19.7,81.7 101.6,132.2 183.2,113.1 19.5,-4.7 483.6,-118.2 929.9,-582.6 404,-420.4 872.6,-1223.4 810.4,-2661.1 -3.5,-82 -71.2,-146 -152.4,-146"
         style="fill:#371a45;fill-opacity:1;fill-rule:nonzero;stroke:none"
         id="path297" />
      <path
         d="m 13191.9,17365.8 c -140.9,136.4 -278.4,269.1 -416.2,402.4 -0.3,3.4 0,7.6 0,11.4 136.4,4.2 273.2,8 411.4,12.2 19.4,-146.5 18,-283.7 4.8,-426 z m -38.1,-226 c -44.8,-174.6 -113.6,-337.8 -225,-481.1 -86.1,-110.1 -188.5,-203.5 -298.2,-289.2 -297.5,-232.6 -627,-411.7 -967.2,-572.4 -16.6,-7.7 -27.4,-8.4 -41.3,5.8 -30.2,31.6 -63.2,61.5 -94.7,92.4 -2.1,1.7 -3.2,4.8 -6.6,10.7 7.9,8.7 16.6,17.4 25.3,26.4 179.8,186.8 360.7,373.2 540.5,560.3 52.1,53.5 43.1,130.6 -18,166.7 -42.7,25.3 -92.7,17.3 -131.6,-22.3 -108.3,-111.7 -216.3,-223.5 -324.2,-335.6 -80.6,-83.4 -160.4,-166.3 -244.1,-253.1 -38.9,37.5 -76,71.5 -110.4,107.9 -5.9,6.6 -3.8,25.7 1.4,35.8 84,178.1 167,356.9 255.9,532.9 87.8,174.6 192.6,339.5 312,494.3 111.8,146.2 236.8,279.1 398.2,371.5 103.5,59.3 212.5,105.5 327.7,135.7 10.4,3.1 27.4,-5.2 36.5,-13.9 142.3,-136.1 283.3,-272.5 424.5,-409.3 42.4,-40.6 84.4,-82.3 127.8,-122.2 12.8,-12.1 16,-23.6 11.5,-41.3 z M 12533,15843.9 c -20.1,-129.8 -79.1,-241.9 -156.9,-345.7 -96.8,-127.8 -216.6,-230.2 -348.2,-327.1 -35,174.3 -69.7,344.8 -103.7,511.7 203.4,116.7 402.3,230.5 602.2,345.1 17.1,-57.3 16.4,-120.8 6.6,-184 z m -1404.2,591.9 c -160.4,26.7 -326.6,54.5 -497.4,83 141.3,204.1 295.7,387 525.6,489.1 99.2,44.1 219.3,59.7 294.3,41.7 -106.5,-203.5 -213.5,-406.9 -322.5,-613.8 z m 2281.5,1189 c -3.8,105.2 -5.9,211.7 -42,313.8 -10.8,10.1 -20.8,20.5 -31.6,30.6 -31.6,6.2 -62.8,15.9 -95.1,19 -227.8,23.7 -453.4,12.5 -676.3,-40.9 -290.5,-69.8 -547.1,-201.4 -751.2,-423.5 -73.9,-80.2 -139.2,-168.1 -206.6,-253.8 -18,-23.3 -32.9,-34 -64.5,-25 -74.3,21.2 -151.4,24 -228.1,16.3 -205.5,-21.5 -377.7,-114.9 -531.5,-247.1 -166.6,-143.8 -291.6,-321.2 -404.8,-507.9 -48.2,-79.2 -13.5,-154.2 78.5,-170.5 58,-9.7 115.9,-19.1 173.9,-28.8 138.9,-22.9 277.4,-45.5 415.9,-68.4 0.3,-4.1 1,-6.2 0.7,-8.3 -0.7,-2.8 -1.4,-5.9 -2.8,-8.7 -44.4,-79.1 -21.2,-142.7 46.2,-195.4 7.3,-5.9 13.9,-13.2 20.5,-19.8 36.4,-35.4 73.6,-71.2 112.1,-108 -38.9,-40.6 -77.8,-76 -110.7,-116.6 -16.7,-20.5 -29.9,-48.6 -33.4,-75 -6.2,-42.7 21.2,-81.2 60.8,-97.2 42,-17.4 81.6,-10.4 113.5,20.8 40.6,39.2 78.8,80.9 119.8,123.3 52.4,-51.1 102,-99.3 151.7,-146.9 56.9,-54.1 91.3,-59.7 162.1,-28.1 12.8,6.2 25.7,11.1 41,17.3 3.4,-15.6 6.6,-28.1 9,-39.9 38.2,-189.5 75.7,-379.4 114.9,-568.3 18.4,-89.5 96.1,-121.5 171.8,-70.4 68.4,45.8 136.5,93.7 202.8,143.7 152.7,115.6 287.4,249.2 386,414.8 123.2,208.3 175.6,428.1 99.6,666.9 -3.1,9.4 2.5,27.1 10.1,33.3 67,59 136.4,115.3 203.4,174.6 151.4,134.7 264.9,297.2 344.7,482.9 108.7,252.4 149.7,517.6 139.6,791.2"
         style="fill:#371a45;fill-opacity:1;fill-rule:nonzero;stroke:none"
         id="path299" />
      <path
         d="m 12820.8,16892 c -137.8,-140.6 -362,-145.2 -501.9,-9.4 -140.6,135.4 -144.1,359.6 -8,501.6 133.6,139.2 358.2,142.3 499.2,7 139.5,-134.7 144.7,-362.1 10.7,-499.2 z m 321.5,289.1 c -43.4,39.9 -85.4,81.6 -127.8,122.2 -141.2,136.8 -282.2,273.2 -424.5,409.3 -9.1,8.7 -26.1,17 -36.5,13.9 -115.2,-30.2 -224.2,-76.4 -327.7,-135.7 -161.4,-92.4 -286.4,-225.3 -398.2,-371.5 -119.4,-154.8 -224.2,-319.7 -312,-494.3 -88.9,-176 -171.9,-354.8 -255.9,-532.9 -5.2,-10.1 -7.3,-29.2 -1.4,-35.8 34.4,-36.4 71.5,-70.4 110.4,-107.9 83.7,86.8 163.5,169.7 244.1,253.1 107.9,112.1 215.9,223.9 324.2,335.6 38.9,39.6 88.9,47.6 131.6,22.3 61.1,-36.1 70.1,-113.2 18,-166.7 -179.8,-187.1 -360.7,-373.5 -540.5,-560.3 -8.7,-9 -17.4,-17.7 -25.3,-26.4 3.4,-5.9 4.5,-9 6.6,-10.7 31.5,-30.9 64.5,-60.8 94.7,-92.4 13.9,-14.2 24.7,-13.5 41.3,-5.8 340.2,160.7 669.7,339.8 967.2,572.4 109.7,85.7 212.1,179.1 298.2,289.2 111.4,143.3 180.2,306.5 225,481.1 4.5,17.7 1.3,29.2 -11.5,41.3"
         style="fill:#ffffff;fill-opacity:1;fill-rule:nonzero;stroke:none"
         id="path301" />
      <path
         d="m 13191.9,17365.9 c -141,136.2 -278.5,269 -416.2,402.3 -0.2,3.6 0,7.5 -0.1,11.4 136.5,4 273.3,7.9 411.6,12.2 19.5,-146.4 17.9,-283.6 4.7,-425.9"
         style="fill:#db2c2c;fill-opacity:1;fill-rule:nonzero;stroke:none"
         id="path303" />
      <path
         d="m 11451.5,17049.5 c -106.8,-203.2 -213.7,-406.8 -322.5,-613.9 -160.7,27 -326.9,54.7 -497.6,83 141.4,204.4 295.7,387.4 525.6,489.3 99.2,44.2 219.2,59.7 294.5,41.6"
         style="fill:#db2c2c;fill-opacity:1;fill-rule:nonzero;stroke:none"
         id="path305" />
      <path
         d="m 12376,15498.1 c -96.9,-127.8 -216.4,-230.3 -348.2,-326.9 -35.1,174.1 -69.7,344.6 -103.7,511.6 203.5,116.6 402.3,230.4 602.5,345.2 17,-57.4 16.1,-120.8 6.6,-184.2 -20.2,-129.9 -79.2,-241.9 -157.2,-345.7"
         style="fill:#db2c2c;fill-opacity:1;fill-rule:nonzero;stroke:none"
         id="path307" />
      <path
         d="m 12696.6,17005.5 c -69.8,-71.5 -187.9,-73.3 -261.1,-3.8 -75.7,71.5 -76.4,193.3 -1.7,268.3 69.7,70.8 190.2,71.5 261.4,1.4 74.3,-72.9 74.6,-191 1.4,-265.9 z m 113.5,385.7 c -141,135.3 -365.6,132.2 -499.2,-7 -136.1,-142 -132.6,-366.2 8,-501.6 139.9,-135.8 364.1,-131.2 501.9,9.4 134,137.1 128.8,364.5 -10.7,499.2"
         style="fill:#371a45;fill-opacity:1;fill-rule:nonzero;stroke:none"
         id="path309" />
      <path
         d="m 12696.5,17005.5 c -69.8,-71.5 -187.8,-73.3 -261.2,-3.8 -75.4,71.5 -76.2,193.2 -1.6,268.2 69.9,70.8 190.2,71.6 261.3,1.5 74.3,-72.9 75,-191 1.5,-265.9"
         style="fill:#22a7f0;fill-opacity:1;fill-rule:nonzero;stroke:none"
         id="path311" />
    </g>
    <path
       style="fill:#ffffff;fill-opacity:1;stroke-width:0.064683"
       d="M 38.689717,67.371674 V 0.3279004 h 67.043763 67.04379 V 67.371674 134.41546 H 105.73348 38.689717 Z m 70.924733,40.457976 c 8.82312,-0.42628 16.99138,-2.29266 24.31104,-5.55484 1.35269,-0.60287 4.03547,-1.97615 5.24902,-2.686906 1.25157,-0.73303 3.51129,-2.23362 4.62483,-3.07118 4.62464,-3.47844 8.36535,-7.76424 10.51832,-12.05108 l 0.28501,-0.56749 0.43597,-0.004 c 0.89803,-0.01 1.42869,-0.0869 1.53189,-0.22339 0.13263,-0.1754 0.12452,-0.43988 -0.0198,-0.61708 -0.0952,-0.11759 -0.19777,-0.15243 -0.50129,-0.16986 -0.76776,-0.0441 -14.63214,-0.21449 -17.44919,-0.21428 h -2.9021 l 0.039,-0.1455 c 0.0214,-0.08 0.10116,-0.56759 0.17738,-1.08344 0.076,-0.51584 0.19203,-1.08343 0.25787,-1.2613 0.2005,-0.54234 0.37549,-1.25927 0.48152,-1.97283 0.11165,-0.75095 0.20222,-3.14522 0.13303,-3.51403 -0.0241,-0.12908 -0.13917,-0.35918 -0.2553,-0.51141 -0.21091,-0.27633 -0.21142,-0.27878 -0.29099,-1.42887 -0.47074,-6.80419 -2.22178,-11.9475 -4.60749,-13.53351 -1.10851,-0.73694 -3.23268,-1.18278 -6.18916,-1.29901 -0.61319,-0.0241 -1.11488,-0.0515 -1.11488,-0.0608 0,-0.01 0.20761,-0.32908 0.46137,-0.71058 0.49745,-0.74796 1.28607,-2.15547 1.45525,-2.59731 0.0958,-0.25014 0.13423,-0.28126 0.46501,-0.37745 0.55171,-0.16035 1.04865,-0.43632 1.65205,-0.9173 0.30208,-0.24079 0.71292,-0.56434 0.91299,-0.71902 0.20005,-0.15461 0.52156,-0.4909 0.71446,-0.74718 1.68118,-2.23365 1.74419,-6.149381 0.13898,-8.638422 -1.0868,-1.685275 -1.69805,-2.382338 -2.57748,-2.939437 l -0.49123,-0.311185 -0.27856,-0.753423 c -0.34132,-0.923121 -1.20445,-2.657314 -1.7686,-3.553373 -3.02162,-4.799181 -7.91168,-8.04519 -13.5562,-8.998322 -2.4288,-0.410129 -5.24109,-0.327597 -7.64788,0.224435 -5.628904,1.291063 -10.378671,4.901985 -13.097335,9.956998 -1.577126,2.932449 -2.359651,6.051006 -2.361512,9.411339 -0.0019,3.40553 0.605879,5.97661 2.117695,8.95859 1.938119,3.82287 4.929522,6.82461 8.740134,8.77035 l 0.849398,0.4337 -0.401557,0.76665 c -0.881172,1.68237 -2.124109,3.54468 -3.432494,5.14295 -0.615579,0.752 -2.010179,2.2537 -2.092969,2.2537 -0.02395,0 -0.214259,-0.6913 -0.422858,-1.53623 -0.208578,-0.84492 -0.448455,-1.68535 -0.533066,-1.86764 -0.204005,-0.43947 -0.57654,-0.85047 -1.001971,-1.10535 -0.731133,-0.43808 0.405021,-0.40985 -15.745637,-0.3912 l -14.614038,0.0178 -0.323399,0.17223 c -0.416899,0.22208 -0.764213,0.58509 -0.949134,0.99199 -0.287548,0.63274 -0.290497,0.61716 1.424394,7.53554 0.859771,3.46863 1.54937,6.34297 1.532424,6.38743 -0.02376,0.0624 -0.539579,0.0826 -2.248234,0.0885 -1.219577,0.004 -3.115074,0.0261 -4.212228,0.0485 l -1.994816,0.0408 -0.123532,0.15263 c -0.146891,0.18154 -0.156592,0.44495 -0.02277,0.62192 0.118582,0.15679 0.661765,0.21649 2.033836,0.22366 l 0.937909,0.004 0.368853,0.72739 c 1.899733,3.74643 5.144158,7.61416 9.107184,10.85686 1.477014,1.20855 3.60039,2.69328 5.386153,3.76615 8.398343,5.045606 18.858869,8.039896 29.96303,8.576806 1.56433,0.0756 5.39016,0.0778 6.92104,0.004 z"
       id="path667" />
  </g>
</svg>
